<svg width="105" height="109" viewBox="0 0 105 109" fill="none" xmlns="http://www.w3.org/2000/svg">
<path d="M25.3303 105.793C25.3318 106.2 25.2373 106.6 25.0559 106.956C24.8745 107.311 24.6122 107.611 24.2938 107.827C23.7976 108.162 23.1985 108.271 22.6283 108.129C22.0581 107.987 21.5634 107.605 21.2531 107.069L3.86568 76.9895C3.5554 76.4527 3.45492 75.8045 3.58633 75.1876C3.71775 74.5707 4.0703 74.0355 4.56643 73.6998C5.06257 73.3641 5.66164 73.2554 6.23187 73.3975C6.80211 73.5397 7.2968 73.9211 7.60711 74.4579L24.9945 104.537C25.2124 104.914 25.3287 105.349 25.3303 105.793Z" fill="#FF5D5D"/>
<path d="M100.705 75.7113C100.707 76.1613 100.591 76.6027 100.372 76.9848L83.0727 107.064C82.7635 107.601 82.2696 107.984 81.6997 108.128C81.1298 108.271 80.5304 108.164 80.0335 107.83C79.5366 107.495 79.1829 106.961 79.0502 106.344C78.9175 105.728 79.0166 105.079 79.3257 104.542L96.6248 74.4625C96.934 73.9249 97.4278 73.5423 97.9978 73.3987C98.5677 73.255 99.1671 73.3623 99.6639 73.6967C99.9807 73.91 100.242 74.2066 100.424 74.5589C100.606 74.9112 100.703 75.3077 100.705 75.7113Z" fill="#FF5D5D"/>
<path d="M3.84871 71.9082C3.29557 71.9054 2.76356 71.678 2.35806 71.271C1.95256 70.864 1.70316 70.307 1.65926 69.7104C0.147477 49.175 9.42379 29.4477 25.6559 18.6785C41.8879 7.90926 62.3462 7.90926 78.5783 18.6785C94.8103 29.4477 104.087 49.175 102.575 69.7104C102.528 70.3416 102.252 70.9269 101.807 71.3376C101.361 71.7483 100.783 71.9508 100.2 71.9005C99.6168 71.8503 99.0758 71.5513 98.6962 71.0696C98.3166 70.5878 98.1294 69.9626 98.1758 69.3315C99.5565 50.5771 91.0955 32.5837 76.2712 22.7485C61.447 12.9133 42.7872 12.9133 27.9629 22.7485C13.1386 32.5837 4.67767 50.5771 6.05834 69.3315C6.10476 69.9626 5.91757 70.5878 5.53794 71.0696C5.15831 71.5513 4.61735 71.8503 4.03402 71.9005C3.97238 71.9059 3.91055 71.9084 3.84871 71.9082Z" fill="#FF5D5D"/>
<path d="M5.78678 78.0918C5.41119 78.0925 5.04164 77.9896 4.71313 77.7926C4.38461 77.5956 4.10801 77.3112 3.9095 76.9662C2.66037 74.7955 1.91045 72.3321 1.72279 69.7831C1.67632 69.152 1.86349 68.5267 2.24313 68.0449C2.62276 67.5631 3.16376 67.2641 3.74711 67.2138C4.33047 67.1636 4.9084 67.3661 5.35375 67.7768C5.79911 68.1875 6.07542 68.7728 6.1219 69.4039C6.25354 71.1922 6.77946 72.9201 7.65578 74.4431C7.96506 74.9805 8.06433 75.6289 7.93176 76.2456C7.79918 76.8622 7.44561 77.3967 6.94883 77.7313C6.60005 77.9661 6.1976 78.091 5.78678 78.0918Z" fill="#FF5D5D"/>
<path d="M98.4255 78.0931C98.0222 78.0879 97.628 77.9632 97.2857 77.7326C96.7889 77.398 96.4353 76.8635 96.3027 76.2469C96.1702 75.6302 96.2694 74.9818 96.5787 74.4444C97.455 72.9215 97.9809 71.1935 98.1126 69.4053C98.1591 68.7741 98.4354 68.1888 98.8807 67.7781C99.3261 67.3674 99.904 67.1649 100.487 67.2152C101.071 67.2655 101.612 67.5644 101.991 68.0462C102.371 68.5281 102.558 69.1533 102.512 69.7844C102.324 72.3334 101.574 74.7968 100.325 76.9676C100.124 77.316 99.8444 77.6026 99.5116 77.7998C99.1789 77.997 98.8048 78.098 98.4255 78.0931Z" fill="#FF5D5D"/>
<path d="M5.78678 78.0918C5.41119 78.0925 5.04164 77.9896 4.71313 77.7926C4.38461 77.5956 4.10801 77.3112 3.9095 76.9662C2.66037 74.7955 1.91045 72.3321 1.72279 69.7831C1.67632 69.152 1.86349 68.5267 2.24313 68.0449C2.62276 67.5631 3.16376 67.2641 3.74711 67.2138C4.33047 67.1636 4.9084 67.3661 5.35375 67.7768C5.79911 68.1875 6.07542 68.7728 6.1219 69.4039C6.25354 71.1922 6.77946 72.9201 7.65578 74.4431C7.96506 74.9805 8.06433 75.6289 7.93176 76.2456C7.79918 76.8622 7.44561 77.3967 6.94883 77.7313C6.60005 77.9661 6.1976 78.091 5.78678 78.0918Z" fill="#FF5D5D"/>
<path d="M57.104 70.0889C57.104 70.722 56.8715 71.3292 56.4577 71.7769C56.0439 72.2246 55.4827 72.4761 54.8975 72.4761H49.4253C48.8401 72.4761 48.2789 72.2246 47.8651 71.7769C47.4513 71.3292 47.2188 70.722 47.2188 70.0889C47.2188 69.4558 47.4513 68.8486 47.8651 68.401C48.2789 67.9533 48.8401 67.7018 49.4253 67.7018H54.8975C55.4827 67.7018 56.0439 67.9533 56.4577 68.401C56.8715 68.8486 57.104 69.4558 57.104 70.0889Z" fill="#FF5D5D"/>
<path d="M59.134 74.0844C59.137 74.5754 59 75.0554 58.7416 75.4591L53.9756 82.9073C53.7725 83.2246 53.5013 83.4839 53.1854 83.6629C52.8694 83.842 52.5181 83.9355 52.1614 83.9355C51.8047 83.9355 51.4533 83.842 51.1374 83.6629C50.8214 83.4839 50.5503 83.2246 50.3472 82.9073L45.5811 75.4591C45.4162 75.2014 45.2998 74.911 45.2386 74.6046C45.1773 74.2981 45.1726 73.9817 45.2244 73.6732C45.2762 73.3648 45.3837 73.0704 45.5407 72.8069C45.6977 72.5434 45.9011 72.316 46.1393 72.1375C46.3776 71.9591 46.646 71.8331 46.9292 71.7669C47.2124 71.7007 47.5049 71.6954 47.79 71.7515C48.0751 71.8076 48.3472 71.9239 48.5907 72.0937C48.8343 72.2636 49.0445 72.4836 49.2095 72.7414L52.1614 77.3546L55.1133 72.7414C55.2782 72.4836 55.4885 72.2636 55.732 72.0937C55.9756 71.9239 56.2477 71.8076 56.5328 71.7515C56.8179 71.6954 57.1104 71.7007 57.3936 71.7669C57.6768 71.8331 57.9452 71.9591 58.1835 72.1375C58.4747 72.3556 58.7132 72.6464 58.8786 72.9853C59.044 73.3242 59.1316 73.7012 59.134 74.0844Z" fill="#FF5D5D"/>
<path d="M56.7794 76.4326C56.3382 76.4311 55.9076 76.2866 55.5431 76.0176C55.0596 75.661 54.7269 75.1111 54.6182 74.489C54.5094 73.867 54.6335 73.2236 54.9632 72.7005C54.9932 72.6529 54.9957 72.6038 54.9708 72.5528C54.9459 72.5019 54.907 72.4766 54.8537 72.4766C54.2685 72.4766 53.7073 72.2251 53.2935 71.7774C52.8797 71.3297 52.6472 70.7225 52.6472 70.0894C52.6472 69.4562 52.8797 68.849 53.2935 68.4013C53.7073 67.9537 54.2685 67.7021 54.8537 67.7021C56.5344 67.7021 58.0873 68.7145 58.8725 70.3221C59.6578 71.9297 59.5561 73.888 58.6093 75.3903C58.4062 75.7125 58.1332 75.976 57.8142 76.1577C57.4952 76.3394 57.1399 76.4338 56.7794 76.4326Z" fill="#FF5D5D"/>
<path d="M47.4331 76.4326C47.0764 76.4299 46.7256 76.3337 46.4108 76.1521C46.0959 75.9706 45.8265 75.7093 45.6255 75.3904C44.6787 73.8881 44.577 71.9298 45.3623 70.3222C46.1476 68.7147 47.7004 67.7023 49.3811 67.7023C49.9663 67.7023 50.5275 67.9538 50.9413 68.4015C51.3551 68.8492 51.5876 69.4564 51.5876 70.0895C51.5876 70.7226 51.3551 71.3298 50.9413 71.7775C50.5275 72.2252 49.9663 72.4767 49.3811 72.4767C49.3278 72.4767 49.2889 72.502 49.264 72.553C49.2391 72.6039 49.2416 72.6531 49.2716 72.7007C49.6013 73.2238 49.7254 73.8671 49.6166 74.4892C49.5079 75.1112 49.1752 75.6611 48.6917 76.0178C48.3209 76.2913 47.8819 76.436 47.4331 76.4326Z" fill="#FF5D5D"/>
<path d="M74.8004 49.9414C69.0909 49.9414 64.0481 45.8389 62.4632 39.9045C62.3827 39.6033 62.3579 39.288 62.3901 38.9764C62.4224 38.6649 62.511 38.3632 62.651 38.0887C62.7909 37.8142 62.9795 37.5723 63.2059 37.3766C63.4323 37.181 63.6921 37.0355 63.9705 36.9484C64.5327 36.7727 65.1364 36.8457 65.6488 37.1515C66.1612 37.4573 66.5403 37.9708 66.7028 38.579C67.7476 42.4912 71.0365 45.1669 74.8004 45.1669C78.5643 45.1669 81.8531 42.4912 82.898 38.579C83.0604 37.9708 83.4396 37.4573 83.952 37.1515C84.4644 36.8457 85.0681 36.7727 85.6303 36.9484C85.9086 37.0355 86.1684 37.181 86.3949 37.3766C86.6213 37.5723 86.8098 37.8142 86.9498 38.0887C87.0898 38.3632 87.1784 38.6649 87.2106 38.9764C87.2428 39.288 87.218 39.6033 87.1376 39.9045C85.5526 45.8389 80.5099 49.9414 74.8004 49.9414Z" fill="#FF5D5D"/>
<path d="M74.3149 47.2655C74.3152 47.4853 74.2874 47.7042 74.2324 47.9158L72.4672 54.6955C72.3886 54.9973 72.2559 55.2794 72.0765 55.5257C71.8972 55.7719 71.6748 55.9776 71.422 56.1308C71.1692 56.2841 70.891 56.382 70.6032 56.4189C70.3155 56.4559 70.0238 56.4311 69.7449 56.3461C69.4659 56.2611 69.2052 56.1175 68.9776 55.9235C68.75 55.7294 68.5599 55.4888 68.4183 55.2153C68.2766 54.9418 68.1861 54.6408 68.152 54.3295C68.1178 54.0181 68.1407 53.7026 68.2193 53.4008L69.9845 46.6211C70.0631 46.3193 70.1958 46.0373 70.3751 45.791C70.5544 45.5447 70.7769 45.3391 71.0297 45.1858C71.2824 45.0326 71.5607 44.9347 71.8484 44.8977C72.1362 44.8608 72.4279 44.8856 72.7068 44.9706C73.1692 45.1115 73.5765 45.4119 73.8667 45.8261C74.157 46.2403 74.3144 46.7457 74.3149 47.2655Z" fill="#FF5D5D"/>
<path d="M81.6408 54.0351C81.6435 54.5577 81.4876 55.0667 81.1971 55.4841C80.9066 55.9016 80.4975 56.2044 80.0327 56.3461C79.7537 56.4311 79.4621 56.4559 79.1743 56.4189C78.8866 56.382 78.6083 56.2841 78.3555 56.1308C78.1027 55.9776 77.8803 55.7719 77.701 55.5257C77.5217 55.2794 77.3889 54.9973 77.3104 54.6955L75.5451 47.9158C75.4666 47.6141 75.4437 47.2985 75.4778 46.9872C75.512 46.6758 75.6025 46.3748 75.7441 46.1013C75.8858 45.8278 76.0758 45.5872 76.3035 45.3932C76.5311 45.1992 76.7918 45.0556 77.0708 44.9706C77.3497 44.8856 77.6413 44.8608 77.9291 44.8977C78.2169 44.9347 78.4951 45.0326 78.7479 45.1858C79.0007 45.3391 79.2231 45.5447 79.4024 45.791C79.5818 46.0373 79.7145 46.3193 79.793 46.6211L81.5583 53.4008C81.612 53.6073 81.6398 53.8206 81.6408 54.0351Z" fill="#FF5D5D"/>
<path d="M69.4607 44.2239C69.4577 44.8529 69.2255 45.4551 68.8144 45.8998L64.2248 50.8653C64.0199 51.0869 63.7767 51.2628 63.509 51.3827C63.2413 51.5027 62.9544 51.5645 62.6646 51.5645C62.3748 51.5645 62.0879 51.5027 61.8202 51.3827C61.5525 51.2628 61.3092 51.0869 61.1043 50.8653C60.8994 50.6436 60.7369 50.3804 60.626 50.0908C60.5151 49.8012 60.4581 49.4907 60.4581 49.1772C60.4581 48.8637 60.5151 48.5533 60.626 48.2637C60.7369 47.974 60.8994 47.7109 61.1043 47.4892L65.6939 42.5238C65.8988 42.3021 66.1421 42.1263 66.4098 42.0063C66.6775 41.8863 66.9644 41.8246 67.2541 41.8246C67.5439 41.8246 67.8308 41.8863 68.0985 42.0063C68.3662 42.1263 68.6095 42.3021 68.8144 42.5238C69.0206 42.7469 69.1839 43.012 69.2949 43.3038C69.4058 43.5957 69.4621 43.9084 69.4607 44.2239Z" fill="#FF5D5D"/>
<path d="M90.2019 48.0364C90.2009 48.5962 90.0181 49.1378 89.6854 49.5665C89.3092 50.0514 88.7703 50.3548 88.1874 50.4099C87.6044 50.465 87.0251 50.2673 86.5768 49.8602L81.6342 45.3723C81.186 44.9652 80.9055 44.3822 80.8546 43.7515C80.8037 43.1208 80.9865 42.494 81.3627 42.0091C81.7389 41.5241 82.2778 41.2208 82.8608 41.1657C83.4437 41.1106 84.0231 41.3083 84.4713 41.7153L89.4139 46.2033C89.6612 46.4279 89.86 46.7084 89.9961 47.0252C90.1323 47.3419 90.2025 47.6871 90.2019 48.0364Z" fill="#FF5D5D"/>
<path d="M29.3463 49.8452C23.6368 49.8452 18.594 45.7428 17.0091 39.8085C16.9286 39.5073 16.9038 39.192 16.936 38.8804C16.9683 38.5689 17.0569 38.2673 17.1969 37.9928C17.3368 37.7183 17.5254 37.4763 17.7518 37.2806C17.9782 37.085 18.238 36.9395 18.5164 36.8525C19.0786 36.6767 19.6823 36.7498 20.1947 37.0556C20.7071 37.3614 21.0862 37.8749 21.2487 38.4831C22.2935 42.3951 25.5824 45.0708 29.3463 45.0708C33.1102 45.0708 36.399 42.3951 37.4439 38.4831C37.6063 37.8749 37.9855 37.3614 38.4979 37.0556C39.0103 36.7498 39.614 36.6767 40.1762 36.8525C40.4545 36.9395 40.7143 37.085 40.9408 37.2806C41.1672 37.4763 41.3557 37.7183 41.4957 37.9928C41.6357 38.2673 41.7243 38.5689 41.7565 38.8804C41.7887 39.192 41.7639 39.5073 41.6835 39.8085C40.0985 45.7428 35.0558 49.8452 29.3463 49.8452Z" fill="#FF5D5D"/>
<path d="M36.0976 53.9697C36.0939 54.4922 35.9319 54.9991 35.6363 55.4124C35.3408 55.8257 34.9281 56.1226 34.4615 56.2577C34.1816 56.3388 33.8897 56.3594 33.6024 56.3183C33.3151 56.2773 33.0381 56.1755 32.7872 56.0187C32.5363 55.8618 32.3164 55.653 32.1401 55.4043C31.9638 55.1555 31.8345 54.8716 31.7596 54.5687L30.0826 47.789C30.0077 47.4861 29.9887 47.1703 30.0266 46.8595C30.0645 46.5487 30.1586 46.249 30.3036 45.9775C30.4485 45.7061 30.6415 45.4682 30.8715 45.2774C31.1014 45.0866 31.3638 44.9467 31.6437 44.8657C31.9236 44.7847 32.2156 44.764 32.5028 44.8051C32.7901 44.8461 33.0671 44.9479 33.318 45.1048C33.5689 45.2616 33.7888 45.4704 33.9651 45.7191C34.1415 45.9679 34.2708 46.2518 34.3457 46.5547L36.0226 53.3345C36.0739 53.5416 36.0991 53.7553 36.0976 53.9697Z" fill="#FF5D5D"/>
<path d="M28.8608 47.1702C28.8611 47.39 28.8333 47.6089 28.7783 47.8205L27.0131 54.6003C26.9345 54.9021 26.8018 55.1842 26.6224 55.4304C26.4431 55.6767 26.2207 55.8823 25.9679 56.0356C25.7151 56.1889 25.4369 56.2868 25.1491 56.3237C24.8614 56.3606 24.5697 56.3359 24.2908 56.2509C24.0118 56.1659 23.7511 56.0223 23.5235 55.8282C23.2959 55.6342 23.1058 55.3936 22.9642 55.1201C22.8225 54.8466 22.732 54.5456 22.6979 54.2342C22.6637 53.9229 22.6866 53.6074 22.7652 53.3056L24.5304 46.5258C24.609 46.224 24.7417 45.9419 24.921 45.6957C25.1003 45.4494 25.3228 45.2438 25.5755 45.0905C25.8283 44.9372 26.1066 44.8393 26.3943 44.8024C26.6821 44.7655 26.9738 44.7902 27.2527 44.8752C27.7151 45.0162 28.1224 45.3166 28.4126 45.7308C28.7029 46.145 28.8603 46.6504 28.8608 47.1702Z" fill="#FF5D5D"/>
<path d="M43.8647 49.0947C43.8618 49.7236 43.6295 50.3258 43.2184 50.7705C43.0136 50.9922 42.7703 51.168 42.5026 51.288C42.2349 51.408 41.948 51.4697 41.6582 51.4697C41.3684 51.4697 41.0815 51.408 40.8138 51.288C40.5461 51.168 40.3028 50.9922 40.0979 50.7705L35.5084 45.8052C35.3035 45.5835 35.141 45.3203 35.0301 45.0307C34.9192 44.7411 34.8621 44.4307 34.8621 44.1172C34.8621 43.8037 34.9192 43.4933 35.0301 43.2036C35.141 42.914 35.3035 42.6508 35.5084 42.4292C35.7133 42.2075 35.9566 42.0317 36.2243 41.9117C36.492 41.7917 36.7789 41.73 37.0686 41.73C37.3584 41.73 37.6453 41.7917 37.913 41.9117C38.1807 42.0317 38.424 42.2075 38.6289 42.4292L43.2184 47.3945C43.4247 47.6176 43.588 47.8828 43.6989 48.1746C43.8099 48.4664 43.8662 48.7791 43.8647 49.0947Z" fill="#FF5D5D"/>
<path d="M23.4765 43.4676C23.4739 43.8128 23.4021 44.1534 23.2661 44.4657C23.13 44.778 22.933 45.0547 22.6885 45.2766L17.7459 49.7645C17.2977 50.1716 16.7183 50.3693 16.1354 50.3142C15.5524 50.2591 15.0135 49.9557 14.6373 49.4708C14.2611 48.9859 14.0783 48.3591 14.1292 47.7284C14.1801 47.0977 14.4606 46.5147 14.9088 46.1077L19.8514 41.6197C20.2996 41.2127 20.879 41.015 21.462 41.0701C22.0449 41.1252 22.5838 41.4285 22.96 41.9135C23.2976 42.3485 23.4807 42.8996 23.4765 43.4676Z" fill="#FF5D5D"/>
<path d="M72.3733 81.5566C72.3731 81.6423 72.3686 81.7279 72.3598 81.813L72.1833 83.5318C72.1676 83.684 72.1385 83.8341 72.0963 83.9802L71.655 85.508C71.6197 85.6302 71.5754 85.749 71.5226 85.8635L70.8165 87.3913C70.7358 87.5659 70.6355 87.7292 70.5181 87.8774L69.4589 89.2142C69.365 89.3329 69.2605 89.4413 69.1469 89.5378L67.9113 90.5882C67.8224 90.6637 67.7283 90.7318 67.6298 90.7917L66.2176 91.6511C66.1395 91.6986 66.0589 91.741 65.9761 91.7779L64.4756 92.4463C64.3163 92.5173 64.1498 92.5678 63.9795 92.5968L62.3026 92.8833C62.1888 92.9028 62.0737 92.9126 61.9585 92.9126H60.3698C60.2546 92.9126 60.1395 92.9028 60.0257 92.8833L58.3488 92.5968C58.1929 92.5703 58.0402 92.5257 57.8931 92.4639L56.3044 91.7954C56.2074 91.7546 56.1132 91.7063 56.0224 91.6511L54.6102 90.7917C54.4884 90.7175 54.3734 90.6311 54.2667 90.5334L53.1193 89.483C53.0295 89.4008 52.9459 89.3109 52.8693 89.2142L52.1615 88.3209L51.4537 89.2142C51.3597 89.3329 51.2552 89.4413 51.1417 89.5378L49.906 90.5882C49.8172 90.6637 49.7231 90.7318 49.6245 90.7917L48.2124 91.6511C48.1343 91.6986 48.0537 91.741 47.9709 91.7779L46.4704 92.4463C46.311 92.5173 46.1445 92.5678 45.9743 92.5968L44.2973 92.8833C44.1835 92.9028 44.0685 92.9126 43.9533 92.9126H42.3646C42.2493 92.9126 42.1343 92.9028 42.0205 92.8833L40.3435 92.5968C40.1733 92.5678 40.0068 92.5173 39.8474 92.4463L38.347 91.7779C38.2642 91.741 38.1835 91.6986 38.1055 91.6511L36.6933 90.7917C36.5948 90.7318 36.5007 90.6637 36.4118 90.5882L35.1761 89.5378C35.0626 89.4413 34.9581 89.3329 34.8641 89.2142L33.805 87.8774C33.6875 87.7292 33.5873 87.5659 33.5066 87.3913L32.8005 85.8635C32.7476 85.749 32.7034 85.6302 32.6681 85.508L32.2268 83.9802C32.1846 83.8341 32.1554 83.684 32.1397 83.5318L31.9632 81.813C31.9312 81.5014 31.9562 81.1861 32.0369 80.8849C32.1175 80.5838 32.2522 80.3028 32.4332 80.058C32.6142 79.8132 32.838 79.6093 33.0918 79.4581C33.3456 79.3069 33.6245 79.2112 33.9125 79.1766C34.2005 79.142 34.492 79.169 34.7704 79.2563C35.0487 79.3435 35.3084 79.4892 35.5347 79.6851C35.761 79.8809 35.9494 80.123 36.0892 80.3977C36.2289 80.6723 36.3174 80.974 36.3494 81.2856L36.5023 82.7758L36.8272 83.9004L37.3323 84.9933L38.0734 85.9286L39.0048 86.7205L40.1517 87.4184L41.2878 87.9246L42.5376 88.1381H43.7802L45.03 87.9246L46.1662 87.4184L47.313 86.7205L48.2444 85.9286L48.9855 84.9933L49.4906 83.9004L49.8155 82.7758L49.9684 81.2856C50.0288 80.702 50.2858 80.1629 50.6904 79.7713C51.0949 79.3798 51.6187 79.1634 52.1615 79.1634C52.7043 79.1634 53.2281 79.3798 53.6327 79.7713C54.0373 80.1629 54.2943 80.702 54.3546 81.2856L54.5075 82.7758L54.8325 83.9004L55.3375 84.9933L56.1048 85.9618L56.9569 86.7418L58.0497 87.4068L59.2714 87.9208L60.5429 88.1381H61.7854L63.0352 87.9246L64.1714 87.4184L65.3183 86.7205L66.2497 85.9286L66.9907 84.9933L67.4958 83.9004L67.8208 82.7758L67.9737 81.2856C68.0057 80.974 68.0941 80.6723 68.2339 80.3977C68.3737 80.123 68.5621 79.8809 68.7884 79.6851C69.0147 79.4892 69.2743 79.3435 69.5527 79.2563C69.831 79.169 70.1225 79.142 70.4105 79.1766C70.9514 79.2416 71.4509 79.5206 71.8132 79.9599C72.1755 80.3992 72.375 80.9678 72.3733 81.5566Z" fill="#FF5D5D"/>
<path d="M83.406 105.803C83.406 106.436 83.1735 107.043 82.7597 107.491C82.3459 107.938 81.7847 108.19 81.1995 108.19H23.1238C22.5386 108.19 21.9774 107.938 21.5636 107.491C21.1498 107.043 20.9173 106.436 20.9173 105.803C20.9173 105.17 21.1498 104.562 21.5636 104.115C21.9774 103.667 22.5386 103.415 23.1238 103.415H81.1995C81.7847 103.415 82.3459 103.667 82.7597 104.115C83.1735 104.562 83.406 105.17 83.406 105.803Z" fill="#FF5D5D"/>
<path d="M38.8407 17.4355C38.5404 17.4333 38.2436 17.3648 37.9686 17.2341C37.6936 17.1035 37.4461 16.9134 37.2413 16.6757C29.1114 7.23455 17.0646 2.99813 5.35744 5.46327C4.78303 5.5842 4.18774 5.4533 3.70253 5.09939C3.21731 4.74547 2.88192 4.19752 2.77012 3.57608C2.65835 2.95462 2.77934 2.31059 3.10647 1.78564C3.4336 1.2607 3.94007 0.89784 4.51448 0.77689C17.7105 -2.00177 31.3064 2.77921 40.4703 13.4211C40.6678 13.6505 40.8216 13.9197 40.923 14.2134C41.0243 14.5071 41.0712 14.8195 41.0609 15.1328C41.0507 15.4461 40.9835 15.7542 40.8632 16.0394C40.7429 16.3246 40.5718 16.5814 40.3598 16.795C39.9476 17.2105 39.4041 17.4396 38.8407 17.4355Z" fill="#FF5D5D"/>
<path d="M9.10877 43.873C8.7583 43.8733 8.41282 43.7832 8.10094 43.6102C7.78905 43.4373 7.51974 43.1864 7.31528 42.8784C-0.526521 31.0645 -2.18525 15.7021 2.92844 2.25069C3.03866 1.96075 3.20059 1.69714 3.40497 1.47491C3.60936 1.25267 3.85221 1.07617 4.11964 0.955482C4.38708 0.834789 4.67387 0.77227 4.96364 0.771492C5.25341 0.770718 5.54048 0.831696 5.80847 0.950951C6.07646 1.0702 6.32012 1.24539 6.52553 1.46651C6.73094 1.68764 6.89408 1.95037 7.00563 2.23971C7.11719 2.52905 7.17498 2.83933 7.17569 3.15283C7.17641 3.46634 7.12005 3.77692 7.00982 4.06685C2.4731 16.0005 3.94283 29.6124 10.8999 40.0934C11.2412 40.6076 11.3798 41.2475 11.285 41.8723C11.1903 42.4971 10.8701 43.0556 10.3948 43.4249C10.02 43.7161 9.57021 43.8728 9.10877 43.873Z" fill="#FF5D5D"/>
<path d="M65.3717 17.4355C64.816 17.4335 64.2815 17.2047 63.8749 16.7949C63.6629 16.5812 63.4918 16.3244 63.3715 16.0392C63.2512 15.754 63.184 15.446 63.1737 15.1327C63.1635 14.8194 63.2104 14.5069 63.3117 14.2132C63.4131 13.9195 63.5669 13.6503 63.7644 13.4209C72.9283 2.77909 86.5241 -2.00189 99.7201 0.776766C100.295 0.897717 100.801 1.26057 101.128 1.78552C101.455 2.31046 101.576 2.9545 101.465 3.57595C101.353 4.19739 101.017 4.74534 100.532 5.09926C100.047 5.45317 99.4516 5.58407 98.8772 5.46315C87.1701 2.998 75.1233 7.23441 66.9933 16.6755C66.786 16.9163 66.535 17.1081 66.2559 17.2389C65.9769 17.3696 65.6758 17.4366 65.3717 17.4355Z" fill="#FF5D5D"/>
<path d="M95.104 43.8729C94.6502 43.8677 94.2089 43.7112 93.8403 43.4247C93.365 43.0554 93.0447 42.4969 92.95 41.8722C92.8553 41.2474 92.9938 40.6075 93.3352 40.0933C100.292 29.6123 101.762 16.0004 97.2252 4.06673C97.115 3.7768 97.0586 3.46621 97.0594 3.15271C97.0601 2.83921 97.1179 2.52893 97.2294 2.23959C97.341 1.95025 97.5041 1.68752 97.7095 1.46639C97.9149 1.24527 98.1586 1.07008 98.4266 0.950832C98.6946 0.831577 98.9816 0.770596 99.2714 0.771374C99.5612 0.772148 99.848 0.834667 100.115 0.95536C100.383 1.07605 100.626 1.25256 100.83 1.47479C101.034 1.69702 101.196 1.96063 101.307 2.25057C106.42 15.7019 104.762 31.0644 96.9198 42.8783C96.7131 43.1896 96.4403 43.4425 96.1242 43.6156C95.8082 43.7887 95.4583 43.877 95.104 43.8729Z" fill="#FF5D5D"/>
<path d="M86.3186 61.889C86.3156 62.5179 86.0834 63.1202 85.6723 63.5649L78.8762 70.9175C78.6713 71.1392 78.4281 71.315 78.1603 71.435C77.8926 71.5549 77.6057 71.6167 77.316 71.6167C77.0262 71.6167 76.7393 71.5549 76.4716 71.435C76.2039 71.315 75.9606 71.1392 75.7557 70.9175C75.5508 70.6958 75.3883 70.4327 75.2774 70.143C75.1665 69.8534 75.1094 69.543 75.1094 69.2295C75.1094 68.916 75.1665 68.6056 75.2774 68.3159C75.3883 68.0263 75.5508 67.7631 75.7557 67.5415L82.5518 60.1888C82.7567 59.9671 83 59.7913 83.2677 59.6713C83.5354 59.5514 83.8223 59.4896 84.1121 59.4896C84.4018 59.4896 84.6887 59.5514 84.9564 59.6713C85.2241 59.7913 85.4674 59.9671 85.6723 60.1888C85.8785 60.4119 86.0419 60.6771 86.1528 60.9689C86.2637 61.2607 86.3201 61.5734 86.3186 61.889Z" fill="#FF5D5D"/>
<path d="M91.3493 64.1513C91.3514 64.4695 91.2947 64.785 91.1825 65.0792C91.0703 65.3733 90.9049 65.6403 90.696 65.8643L80.899 76.368C80.6932 76.5887 80.4492 76.7633 80.181 76.882C79.9128 77.0006 79.6256 77.061 79.3358 77.0595C79.046 77.0581 78.7594 76.995 78.4922 76.8737C78.225 76.7524 77.9825 76.5754 77.7785 76.3527C77.5745 76.13 77.4131 75.8661 77.3034 75.5759C77.1937 75.2857 77.1379 74.975 77.1392 74.6615C77.1406 74.348 77.199 74.0379 77.3111 73.7488C77.4232 73.4597 77.5868 73.1973 77.7926 72.9767L87.5896 62.473C87.7954 62.2523 88.0394 62.0776 88.3076 61.959C88.5758 61.8403 88.863 61.78 89.1528 61.7814C89.4425 61.7828 89.7292 61.846 89.9964 61.9672C90.2636 62.0885 90.5061 62.2656 90.7101 62.4883C91.1157 62.931 91.3451 63.5279 91.3493 64.1513Z" fill="#FF5D5D"/>
<path d="M93.3791 69.5029C93.3807 69.8211 93.3234 70.1364 93.2107 70.4303C93.0979 70.7243 92.932 70.9909 92.7227 71.2144L85.8383 78.5671C85.4219 79.0119 84.8591 79.2594 84.274 79.2553C83.6888 79.2512 83.1291 78.9958 82.718 78.5453C82.3069 78.0947 82.0781 77.4859 82.0818 76.8528C82.0856 76.2197 82.3217 75.6142 82.7381 75.1694L89.6225 67.8167C90.039 67.3719 90.6017 67.1244 91.1869 67.1285C91.772 67.1326 92.3317 67.388 92.7428 67.8385C93.1477 68.2821 93.376 68.8795 93.3791 69.5029Z" fill="#FF5D5D"/>
<path d="M22.1528 61.889C22.1498 62.5179 21.9176 63.1202 21.5065 63.5649L14.7104 70.9175C14.5055 71.1392 14.2623 71.315 13.9946 71.435C13.7269 71.5549 13.44 71.6167 13.1502 71.6167C12.8604 71.6167 12.5735 71.5549 12.3058 71.435C12.0381 71.315 11.7948 71.1392 11.5899 70.9175C11.385 70.6958 11.2225 70.4327 11.1116 70.143C11.0007 69.8534 10.9437 69.543 10.9437 69.2295C10.9437 68.916 11.0007 68.6056 11.1116 68.3159C11.2225 68.0263 11.385 67.7631 11.5899 67.5415L18.386 60.1888C18.5909 59.9671 18.8342 59.7913 19.1019 59.6713C19.3696 59.5514 19.6565 59.4896 19.9463 59.4896C20.236 59.4896 20.523 59.5514 20.7907 59.6713C21.0584 59.7913 21.3016 59.9671 21.5065 60.1888C21.7128 60.4119 21.8761 60.6771 21.987 60.9689C22.0979 61.2607 22.1543 61.5734 22.1528 61.889Z" fill="#FF5D5D"/>
<path d="M27.1836 64.1622C27.1844 64.4804 27.1264 64.7956 27.013 65.0892C26.8996 65.3828 26.733 65.6489 26.5232 65.8719L16.638 76.3755C16.2205 76.8192 15.6572 77.0652 15.072 77.0595C14.4868 77.0538 13.9277 76.7968 13.5176 76.3451C13.1076 75.8934 12.8802 75.284 12.8855 74.6509C12.8907 74.0178 13.1282 73.4129 13.5457 72.9693L23.431 62.4657C23.8485 62.022 24.4118 61.776 24.9969 61.7817C25.5821 61.7874 26.1412 62.0444 26.5513 62.4961C26.9551 62.9408 27.182 63.5388 27.1836 64.1622Z" fill="#FF5D5D"/>
<path d="M29.2133 69.5029C29.2149 69.8211 29.1576 70.1364 29.0449 70.4303C28.9322 70.7243 28.7662 70.9909 28.5569 71.2144L21.6726 78.5671C21.2561 79.0119 20.6934 79.2594 20.1082 79.2553C19.5231 79.2512 18.9634 78.9958 18.5523 78.5453C18.1412 78.0947 17.9123 77.4859 17.9161 76.8528C17.9199 76.2197 18.156 75.6142 18.5724 75.1694L25.4568 67.8167C25.8732 67.3719 26.4359 67.1244 27.0211 67.1285C27.6063 67.1326 28.166 67.388 28.5771 67.8385C28.9819 68.2821 29.2103 68.8795 29.2133 69.5029Z" fill="#FF5D5D"/>
</svg>
