<svg width="75" height="75" viewBox="0 0 75 75" fill="none" xmlns="http://www.w3.org/2000/svg">
<g clip-path="url(#clip0)">
<path d="M75 37.5C75 16.7909 58.2091 0 37.5 0C16.7909 0 0 16.7909 0 37.5C0 56.2157 13.7112 71.7304 31.6411 74.5465V48.3424H22.1171V37.5H31.6411V29.2364C31.6411 19.839 37.2416 14.6446 45.8058 14.6446C49.9086 14.6446 54.2012 15.3776 54.2012 15.3776V24.6062H49.4709C44.8144 24.6062 43.3589 27.4961 43.3589 30.4651V37.5H53.7583L52.0971 48.3424H43.3589V74.5465C61.2888 71.7357 75 56.221 75 37.5Z" fill="#1977F3"/>
<path d="M52.0972 48.3428L53.7583 37.5005H43.3589V30.4656C43.3589 27.5019 44.8092 24.6067 49.4709 24.6067H54.2013V15.378C54.2013 15.378 49.9086 14.645 45.8058 14.645C37.2416 14.645 31.6412 19.8342 31.6412 29.2368V37.5005H22.1172V48.3428H31.6412V74.5469C33.5502 74.8475 35.5067 75.0005 37.5001 75.0005C39.4934 75.0005 41.4499 74.8422 43.3589 74.5469V48.3428H52.0972Z" fill="#FEFEFE"/>
</g>
<defs>
<clipPath id="clip0">
<rect width="75" height="75" fill="white"/>
</clipPath>
</defs>
</svg>
