<svg width="76" height="75" viewBox="0 0 76 75" fill="none" xmlns="http://www.w3.org/2000/svg">
<g clip-path="url(#clip0)">
<path d="M37.5225 0C21.8623 0 17.2823 0.0161552 16.392 0.0900076C13.1783 0.357146 11.1785 0.86315 8.99986 1.94786C7.32088 2.78158 5.99673 3.74801 4.68988 5.10274C2.30988 7.57333 0.867445 10.6128 0.345286 14.2258C0.091418 15.9798 0.0175656 16.3375 0.00256432 25.2968C-0.0032054 28.2832 0.00256432 32.2135 0.00256432 37.4853C0.00256432 53.1328 0.0198735 57.7081 0.0948798 58.5967C0.354517 61.7239 0.844943 63.6914 1.88349 65.8435C3.86828 69.963 7.65898 73.0556 12.1247 74.2095C13.671 74.6077 15.3789 74.8269 17.5714 74.9308C18.5003 74.9712 27.9684 75 37.4423 75C46.9161 75 56.39 74.9885 57.2959 74.9423C59.8345 74.8229 61.3087 74.625 62.9387 74.2038C67.4333 73.0441 71.1547 69.9977 73.1799 65.8204C74.1983 63.7202 74.7147 61.6777 74.9483 58.7138C74.9991 58.0676 75.0204 47.7646 75.0204 37.4755C75.0204 27.1846 74.9974 16.9007 74.9466 16.2545C74.71 13.2427 74.1936 11.2175 73.1424 9.07692C72.2798 7.32466 71.3221 6.01609 69.9316 4.67809C67.45 2.30789 64.4151 0.865458 60.7987 0.343875C59.0464 0.0905846 58.6973 0.0155782 49.7312 0H37.5225Z" fill="url(#paint0_radial)"/>
<path d="M37.5225 0C21.8623 0 17.2823 0.0161552 16.392 0.0900076C13.1783 0.357146 11.1785 0.86315 8.99986 1.94786C7.32088 2.78158 5.99673 3.74801 4.68988 5.10274C2.30988 7.57333 0.867445 10.6128 0.345286 14.2258C0.091418 15.9798 0.0175656 16.3375 0.00256432 25.2968C-0.0032054 28.2832 0.00256432 32.2135 0.00256432 37.4853C0.00256432 53.1328 0.0198735 57.7081 0.0948798 58.5967C0.354517 61.7239 0.844943 63.6914 1.88349 65.8435C3.86828 69.963 7.65898 73.0556 12.1247 74.2095C13.671 74.6077 15.3789 74.8269 17.5714 74.9308C18.5003 74.9712 27.9684 75 37.4423 75C46.9161 75 56.39 74.9885 57.2959 74.9423C59.8345 74.8229 61.3087 74.625 62.9387 74.2038C67.4333 73.0441 71.1547 69.9977 73.1799 65.8204C74.1983 63.7202 74.7147 61.6777 74.9483 58.7138C74.9991 58.0676 75.0204 47.7646 75.0204 37.4755C75.0204 27.1846 74.9974 16.9007 74.9466 16.2545C74.71 13.2427 74.1936 11.2175 73.1424 9.07692C72.2798 7.32466 71.3221 6.01609 69.9316 4.67809C67.45 2.30789 64.4151 0.865458 60.7987 0.343875C59.0464 0.0905846 58.6973 0.0155782 49.7312 0H37.5225Z" fill="url(#paint1_radial)"/>
<path d="M37.5056 9.80835C29.9841 9.80835 29.0402 9.84124 26.0861 9.97567C23.1378 10.1107 21.1253 10.5775 19.3644 11.2623C17.5429 11.9697 15.9978 12.9159 14.4584 14.4559C12.9179 15.9952 11.9717 17.5403 11.262 19.3613C10.5754 21.1228 10.108 23.1358 9.97534 26.083C9.84321 29.0371 9.80859 29.9816 9.80859 37.503C9.80859 45.0244 9.84206 45.9654 9.97592 48.9195C10.1115 51.8679 10.5783 53.8803 11.2626 55.6413C11.9705 57.4628 12.9167 59.0079 14.4567 60.5473C15.9955 62.0878 17.5406 63.0363 19.3609 63.7437C21.123 64.4285 23.1361 64.8953 26.0838 65.0303C29.0379 65.1648 29.9813 65.1976 37.5021 65.1976C45.0241 65.1976 45.9651 65.1648 48.9192 65.0303C51.8675 64.8953 53.8823 64.4285 55.6444 63.7437C57.4653 63.0363 59.0081 62.0878 60.5469 60.5473C62.0874 59.0079 63.0337 57.4628 63.7433 55.6418C64.4242 53.8803 64.8915 51.8673 65.03 48.9201C65.1627 45.966 65.1973 45.0244 65.1973 37.503C65.1973 29.9816 65.1627 29.0377 65.03 26.0836C64.8915 23.1352 64.4242 21.1228 63.7433 19.3618C63.0337 17.5403 62.0874 15.9952 60.5469 14.4559C59.0064 12.9153 57.4659 11.9691 55.6427 11.2623C53.8771 10.5775 51.8635 10.1107 48.9152 9.97567C45.9611 9.84124 45.0206 9.80835 37.4969 9.80835H37.5056ZM35.0211 14.7992C35.7585 14.798 36.5812 14.7992 37.5056 14.7992C44.9 14.7992 45.7764 14.8257 48.6965 14.9584C51.3967 15.0819 52.8622 15.5331 53.8385 15.9121C55.1309 16.4141 56.0523 17.0142 57.021 17.9835C57.9904 18.9528 58.5904 19.8759 59.0935 21.1683C59.4726 22.1434 59.9244 23.6089 60.0473 26.3092C60.18 29.2286 60.2088 30.1056 60.2088 37.4967C60.2088 44.8877 60.18 45.7647 60.0473 48.6841C59.9238 51.3844 59.4726 52.8499 59.0935 53.825C58.5916 55.1174 57.9904 56.0376 57.021 57.0064C56.0517 57.9757 55.1315 58.5757 53.8385 59.0777C52.8634 59.4585 51.3967 59.9085 48.6965 60.032C45.777 60.1647 44.9 60.1936 37.5056 60.1936C30.1105 60.1936 29.2341 60.1647 26.3146 60.032C23.6144 59.9074 22.1489 59.4562 21.1721 59.0771C19.8796 58.5752 18.9565 57.9751 17.9872 57.0058C17.0179 56.0365 16.4178 55.1156 15.9147 53.8226C15.5356 52.8476 15.0838 51.3821 14.961 48.6818C14.8282 45.7623 14.8017 44.8853 14.8017 37.4897C14.8017 30.0941 14.8282 29.2217 14.961 26.3022C15.0844 23.602 15.5356 22.1365 15.9147 21.1603C16.4167 19.8679 17.0179 18.9447 17.9872 17.9754C18.9565 17.0061 19.8796 16.406 21.1721 15.9029C22.1483 15.5221 23.6144 15.0721 26.3146 14.948C28.8694 14.8326 29.8595 14.798 35.0211 14.7922V14.7992ZM52.2887 19.3976C50.454 19.3976 48.9654 20.8845 48.9654 22.7198C48.9654 24.5546 50.454 26.0432 52.2887 26.0432C54.1235 26.0432 55.6121 24.5546 55.6121 22.7198C55.6121 20.8851 54.1235 19.3965 52.2887 19.3965V19.3976ZM37.5056 23.2806C29.6512 23.2806 23.2832 29.6487 23.2832 37.503C23.2832 45.3573 29.6512 51.7225 37.5056 51.7225C45.3599 51.7225 51.7256 45.3573 51.7256 37.503C51.7256 29.6487 45.3593 23.2806 37.505 23.2806H37.5056ZM37.5056 28.2714C42.6037 28.2714 46.7371 32.4043 46.7371 37.503C46.7371 42.6011 42.6037 46.7345 37.5056 46.7345C32.4069 46.7345 28.274 42.6011 28.274 37.503C28.274 32.4043 32.4069 28.2714 37.5056 28.2714Z" fill="white"/>
</g>
<defs>
<radialGradient id="paint0_radial" cx="0" cy="0" r="1" gradientUnits="userSpaceOnUse" gradientTransform="translate(19.9274 80.7766) rotate(-90) scale(74.3305 69.1521)">
<stop stop-color="#FFDD55"/>
<stop offset="0.1" stop-color="#FFDD55"/>
<stop offset="0.5" stop-color="#FF543E"/>
<stop offset="1" stop-color="#C837AB"/>
</radialGradient>
<radialGradient id="paint1_radial" cx="0" cy="0" r="1" gradientUnits="userSpaceOnUse" gradientTransform="translate(-12.5663 5.40287) rotate(78.6776) scale(33.2264 136.995)">
<stop stop-color="#3771C8"/>
<stop offset="0.128" stop-color="#3771C8"/>
<stop offset="1" stop-color="#6600FF" stop-opacity="0"/>
</radialGradient>
<clipPath id="clip0">
<rect width="75.0204" height="75" fill="white"/>
</clipPath>
</defs>
</svg>
