<?xml version="1.0" encoding="UTF-8" standalone="no"?>
<svg
   xmlns:dc="http://purl.org/dc/elements/1.1/"
   xmlns:cc="http://creativecommons.org/ns#"
   xmlns:rdf="http://www.w3.org/1999/02/22-rdf-syntax-ns#"
   xmlns:svg="http://www.w3.org/2000/svg"
   xmlns="http://www.w3.org/2000/svg"
   viewBox="0 0 210.19274 73.312294"
   height="73.312294"
   width="210.19275"
   xml:space="preserve"
   id="svg879"
   version="1.1"><metadata
     id="metadata885"><rdf:RDF><cc:Work
         rdf:about=""><dc:format>image/svg+xml</dc:format><dc:type
           rdf:resource="http://purl.org/dc/dcmitype/StillImage" /><dc:title></dc:title></cc:Work></rdf:RDF></metadata><defs
     id="defs883"><clipPath
       id="clipPath895"
       clipPathUnits="userSpaceOnUse"><path
         id="path893"
         d="M 0,0 H 4922 V 6977 H 0 V 0" /></clipPath><clipPath
       id="clipPath1081"
       clipPathUnits="userSpaceOnUse"><path
         id="path1079"
         d="M 0,0 H 4922 V 6977 H 0 V 0" /></clipPath><clipPath
       id="clipPath1093"
       clipPathUnits="userSpaceOnUse"><path
         id="path1091"
         d="M 0,0 H 4922 V 6977 H 0 V 0" /></clipPath><clipPath
       id="clipPath1195"
       clipPathUnits="userSpaceOnUse"><path
         id="path1193"
         d="M 0,0 H 4922 V 6977 H 0 V 0" /></clipPath><clipPath
       id="clipPath1207"
       clipPathUnits="userSpaceOnUse"><path
         id="path1205"
         d="M 0,0 H 4922 V 6977 H 0 V 0" /></clipPath><clipPath
       id="clipPath1215"
       clipPathUnits="userSpaceOnUse"><path
         id="path1213"
         d="M 0,0 H 4922 V 6977 H 0 V 0" /></clipPath><clipPath
       id="clipPath1227"
       clipPathUnits="userSpaceOnUse"><path
         id="path1225"
         d="M 0,0 H 4922 V 6977 H 0 V 0" /></clipPath></defs><g
     transform="matrix(0,-0.16,-0.16,0,681.5195,484.56024)"
     id="g887"><g
       id="g1201"><g
         clip-path="url(#clipPath1207)"
         id="g1203" /></g><g
       id="g5623"><g
         style="stroke:#404040;stroke-opacity:1"
         transform="rotate(-90,3398.5,633)"
         id="g1101"><path
           id="path1103"
           style="fill:none;stroke:#404040;stroke-width:19;stroke-linecap:round;stroke-linejoin:round;stroke-miterlimit:10;stroke-dasharray:none;stroke-opacity:1"
           d="m 210.83234,-16.7922 c 6.31829,79.32868 -32.42743,155.48934 -100.26742,197.09098 -67.83999,41.60163 -153.28985,41.60163 -221.12984,0 -67.83999,-41.60164 -106.58571,-117.7623 -100.26742,-197.09098" /></g><g
         style="stroke:#404040;stroke-opacity:1"
         transform="rotate(-90,3470,717.5)"
         id="g1105"><path
           id="path1107"
           style="fill:none;stroke:#404040;stroke-width:19;stroke-linecap:round;stroke-linejoin:round;stroke-miterlimit:10;stroke-dasharray:none;stroke-opacity:1"
           d="m -54.32795,-4.32707 c 0.6918,-8.68586 3.45612,-17.07924 8.06115,-24.47629" /></g><g
         style="stroke:#404040;stroke-opacity:1"
         transform="rotate(-90,3314.5,562)"
         id="g1109"><path
           id="path1111"
           style="fill:none;stroke:#404040;stroke-width:19;stroke-linecap:round;stroke-linejoin:round;stroke-miterlimit:10;stroke-dasharray:none;stroke-opacity:1"
           d="m 46.2668,-28.80336 c 4.60503,7.39705 7.36935,15.79043 8.06115,24.47629" /></g><g
         style="stroke:#404040;stroke-opacity:1"
         transform="rotate(-90,3470,717.5)"
         id="g1113"><path
           id="path1115"
           style="fill:none;stroke:#404040;stroke-width:19;stroke-linecap:round;stroke-linejoin:round;stroke-miterlimit:10;stroke-dasharray:none;stroke-opacity:1"
           d="m -54.32795,-4.32707 c 0.6918,-8.68586 3.45612,-17.07924 8.06115,-24.47629" /></g><path
         id="path1117"
         style="fill:none;stroke:#404040;stroke-width:19;stroke-linecap:round;stroke-linejoin:round;stroke-miterlimit:10;stroke-dasharray:none;stroke-opacity:1"
         d="m 2746,4044 v -25" /><path
         id="path1119"
         style="fill:none;stroke:#404040;stroke-width:19;stroke-linecap:round;stroke-linejoin:round;stroke-miterlimit:10;stroke-dasharray:none;stroke-opacity:1"
         d="m 2730,4011 -30,20 30,21" /><g
         style="stroke:#404040;stroke-opacity:1"
         transform="rotate(-90,3378,641.5)"
         id="g1121"><path
           id="path1123"
           style="fill:none;stroke:#404040;stroke-width:19;stroke-linecap:round;stroke-linejoin:round;stroke-miterlimit:10;stroke-dasharray:none;stroke-opacity:1"
           d="m 8.67524,-5.91526 c 2.1926,3.21565 2.42663,7.38032 0.60808,10.82137 C 7.46478,8.34715 3.89203,10.5 0,10.5" /></g><g
         style="stroke:#404040;stroke-opacity:1"
         transform="rotate(-90,3390.5,654)"
         id="g1125"><path
           id="path1127"
           style="fill:none;stroke:#404040;stroke-width:19;stroke-linecap:round;stroke-linejoin:round;stroke-miterlimit:10;stroke-dasharray:none;stroke-opacity:1"
           d="m 0,10.5 c -3.89203,0 -7.46478,-2.15285 -9.28332,-5.59389 -1.81855,-3.44105 -1.58452,-7.60572 0.60808,-10.82137" /></g><g
         style="stroke:#404040;stroke-opacity:1"
         transform="rotate(-90,3408,524.5)"
         id="g1129"><path
           id="path1131"
           style="fill:none;stroke:#404040;stroke-width:19;stroke-linecap:round;stroke-linejoin:round;stroke-miterlimit:10;stroke-dasharray:none;stroke-opacity:1"
           d="M -44.67242,-12.90834 C -38.92342,-32.80413 -20.70974,-46.5 0,-46.5 c 20.70974,0 38.92342,13.69587 44.67242,33.59166" /></g><path
         id="path1133"
         style="fill:none;stroke:#404040;stroke-width:19;stroke-linecap:round;stroke-linejoin:round;stroke-miterlimit:10;stroke-dasharray:none;stroke-opacity:1"
         d="m 2838,3945 -27,7" /><path
         id="path1135"
         style="fill:none;stroke:#404040;stroke-width:19;stroke-linecap:round;stroke-linejoin:round;stroke-miterlimit:10;stroke-dasharray:none;stroke-opacity:1"
         d="m 2838,3920 -27,-7" /><path
         id="path1137"
         style="fill:none;stroke:#404040;stroke-width:19;stroke-linecap:round;stroke-linejoin:round;stroke-miterlimit:10;stroke-dasharray:none;stroke-opacity:1"
         d="m 2850,3966 -20,20" /><path
         id="path1139"
         style="fill:none;stroke:#404040;stroke-width:19;stroke-linecap:round;stroke-linejoin:round;stroke-miterlimit:10;stroke-dasharray:none;stroke-opacity:1"
         d="m 2853,3897 -18,-22" /><g
         style="stroke:#404040;stroke-opacity:1"
         transform="rotate(-90,3507.5,624)"
         id="g1141"><path
           id="path1143"
           style="fill:none;stroke:#404040;stroke-width:19;stroke-linecap:round;stroke-linejoin:round;stroke-miterlimit:10;stroke-dasharray:none;stroke-opacity:1"
           d="M -44.67242,-12.90834 C -38.92342,-32.80413 -20.70974,-46.5 0,-46.5 c 20.70974,0 38.92342,13.69587 44.67242,33.59166" /></g><path
         id="path1145"
         style="fill:none;stroke:#404040;stroke-width:19;stroke-linecap:round;stroke-linejoin:round;stroke-miterlimit:10;stroke-dasharray:none;stroke-opacity:1"
         d="m 2838,4118 -27,-7" /><path
         id="path1147"
         style="fill:none;stroke:#404040;stroke-width:19;stroke-linecap:round;stroke-linejoin:round;stroke-miterlimit:10;stroke-dasharray:none;stroke-opacity:1"
         d="m 2838,4143 -27,7" /><path
         id="path1149"
         style="fill:none;stroke:#404040;stroke-width:19;stroke-linecap:round;stroke-linejoin:round;stroke-miterlimit:10;stroke-dasharray:none;stroke-opacity:1"
         d="m 2851,4097 -20,-20" /><path
         id="path1151"
         style="fill:none;stroke:#404040;stroke-width:19;stroke-linecap:round;stroke-linejoin:round;stroke-miterlimit:10;stroke-dasharray:none;stroke-opacity:1"
         d="m 2853,4166 -18,22" /><path
         id="path1153"
         style="fill:none;stroke:#404040;stroke-width:19;stroke-linecap:round;stroke-linejoin:round;stroke-miterlimit:10;stroke-dasharray:none;stroke-opacity:1"
         d="m 2700,4110 -7,-1 -6,-2 -6,-3 -6,-4 -4,-6 -4,-6 -2,-7 -1,-7 v -7 l 1,-7 2,-7 4,-6 4,-5 6,-5 6,-3 6,-2 7,-1 h -7 l -6,-2 -6,-3 -6,-5 -4,-5 -4,-6 -2,-7 -1,-7 v -7 l 1,-8 2,-6 4,-6 4,-6 6,-4 6,-3 6,-2 7,-1" /><path
         id="path1155"
         style="fill:none;stroke:#404040;stroke-width:19;stroke-linecap:round;stroke-linejoin:round;stroke-miterlimit:10;stroke-dasharray:none;stroke-opacity:1"
         d="m 2602,3905 v 253" /><g
         style="stroke:#404040;stroke-opacity:1"
         transform="rotate(-90,3532.5,674)"
         id="g1157"><path
           id="path1159"
           style="fill:none;stroke:#404040;stroke-width:19;stroke-linecap:round;stroke-linejoin:round;stroke-miterlimit:10;stroke-dasharray:none;stroke-opacity:1"
           d="m 117.43379,109.40546 c -37.75325,40.52363 -93.7319,58.71933 -148.09656,48.13833" /></g><g
         style="stroke:#404040;stroke-opacity:1"
         transform="rotate(-90,3522.5,567)"
         id="g1161"><path
           id="path1163"
           style="fill:none;stroke:#404040;stroke-width:19;stroke-linecap:round;stroke-linejoin:round;stroke-miterlimit:10;stroke-dasharray:none;stroke-opacity:1"
           d="M -148.4353,61.05087 C -169.50253,9.82934 -162.67264,-48.63472 -130.36623,-93.62104" /></g><g
         style="stroke:#404040;stroke-opacity:1"
         transform="rotate(-90,3357.5,499)"
         id="g1165"><path
           id="path1167"
           style="fill:none;stroke:#404040;stroke-width:19;stroke-linecap:round;stroke-linejoin:round;stroke-miterlimit:10;stroke-dasharray:none;stroke-opacity:1"
           d="m 30.66277,157.54379 c -54.36466,10.581 -110.34331,-7.6147 -148.09656,-48.13833" /></g><g
         style="stroke:#404040;stroke-opacity:1"
         transform="rotate(-90,3465,509.5)"
         id="g1169"><path
           id="path1171"
           style="fill:none;stroke:#404040;stroke-width:19;stroke-linecap:round;stroke-linejoin:round;stroke-miterlimit:10;stroke-dasharray:none;stroke-opacity:1"
           d="m 130.36623,-93.62104 c 32.30641,44.98632 39.1363,103.45038 18.06907,154.67191" /></g><path
         id="path1173"
         style="fill:none;stroke:#404040;stroke-width:19;stroke-linecap:round;stroke-linejoin:round;stroke-miterlimit:10;stroke-dasharray:none;stroke-opacity:1"
         d="m 2749,3922 30,-30" /><path
         id="path1175"
         style="fill:none;stroke:#404040;stroke-width:19;stroke-linecap:round;stroke-linejoin:round;stroke-miterlimit:10;stroke-dasharray:none;stroke-opacity:1"
         d="m 2728,3913 42,-43" /><path
         id="path1177"
         style="fill:none;stroke:#404040;stroke-width:19;stroke-linecap:round;stroke-linejoin:round;stroke-miterlimit:10;stroke-dasharray:none;stroke-opacity:1"
         d="m 2719,3891 29,-30" /><path
         id="path1179"
         style="fill:none;stroke:#404040;stroke-width:19;stroke-linecap:round;stroke-linejoin:round;stroke-miterlimit:10;stroke-dasharray:none;stroke-opacity:1"
         d="m 2749,4202 30,-30" /><path
         id="path1181"
         style="fill:none;stroke:#404040;stroke-width:19;stroke-linecap:round;stroke-linejoin:round;stroke-miterlimit:10;stroke-dasharray:none;stroke-opacity:1"
         d="m 2728,4193 42,-43" /><path
         id="path1183"
         style="fill:none;stroke:#404040;stroke-width:19;stroke-linecap:round;stroke-linejoin:round;stroke-miterlimit:10;stroke-dasharray:none;stroke-opacity:1"
         d="m 2719,4171 29,-30" /><path
         id="path1185"
         style="fill:none;stroke:#404040;stroke-width:19;stroke-linecap:round;stroke-linejoin:round;stroke-miterlimit:10;stroke-dasharray:none;stroke-opacity:1"
         d="m 2602,4158 121,76" /><path
         id="path1187"
         style="fill:none;stroke:#404040;stroke-width:19;stroke-linecap:round;stroke-linejoin:round;stroke-miterlimit:10;stroke-dasharray:none;stroke-opacity:1"
         d="m 2602,3905 121,-76" /><g
         id="g1189"><g
           id="g1191"
           clip-path="url(#clipPath1195)"><g
             id="text1199"
             style="font-variant:normal;font-weight:600;font-size:421.97799683px;font-family:HoboMedium;-inkscape-font-specification:HoboMedium;writing-mode:lr-tb;fill:#000000;fill-opacity:1;fill-rule:nonzero;stroke:none"
             transform="matrix(0,-1,-1,0,2679,3787)"
             aria-label="Alira"><path
               style="fill:#404040;stroke:#808080;fill-opacity:1"
               id="path5625"
               d="M 50.274722,0 Q 36.881866,0.20604394 32.760987,-3.502747 27.609888,-8.4478017 24.725273,-19.780219 L 20.604394,-36.263734 Q 15.65934,-59.340656 15.65934,-87.362632 15.453296,-145.05494 36.881866,-198.21427 q 23.282966,-58.72253 64.903844,-92.92582 6.38736,-5.35715 15.45329,-11.95055 14.83517,-11.12637 22.45879,-10.92033 12.98077,0 32.55495,16.07143 19.57417,16.27747 32.96703,34.20329 21.22252,28.84615 32.14285,64.28571 14.62912,49.03846 14.62912,103.434062 0,21.016482 -1.85439,42.239009 -1.23627,15.041208 -3.50275,30.082415 -2.06044,13.186813 -6.59341,17.9258236 Q 234.68405,-0.20604394 222.52746,0 h -33.37912 q -17.51373,0 -16.8956,-8.2417578 -0.20605,-4.7390102 2.47252,-12.5686802 14.83517,-47.802195 15.24726,-73.557688 0,-6.593404 -1.64836,-11.950544 -3.09065,-10.3022 -25.3434,-10.50825 -33.79121,0.20605 -64.285711,13.39286 -20.810438,9.478022 -21.016482,32.554943 -0.206044,14.423076 4.120879,27.197801 3.502747,11.126373 9.271977,25.755493 2.266484,5.975274 3.914835,10.9203289 0.412088,1.2362637 0.412088,2.0604394 Q 95.810434,0.20604394 83.447797,0 Z m 92.101648,-250.75548 q -6.59341,0.20604 -14.83517,7.21154 -14.62912,12.77472 -27.609887,37.08791 -16.895604,30.90659 -16.895604,41.20879 -0.206044,4.73901 2.472528,7.82967 l 2.678571,2.06044 q 2.060439,1.23626 4.120879,1.03022 3.914835,0.20604 14.010983,-3.50275 10.3022,-3.70879 31.73077,-5.76923 l 14.01099,-1.03022 13.5989,-0.41209 q 16.8956,0.20604 17.10165,-11.95055 0,-3.50274 -1.44231,-9.06593 -11.12637,-40.17857 -29.0522,-59.5467 -5.56318,-4.94506 -9.8901,-5.1511 z" /><path
               style="fill:#404040;stroke:#808080;fill-opacity:1"
               id="path5627"
               d="m 315.50272,0 q -19.36813,0.61813183 -20.60439,-12.774725 -0.82418,-11.332416 -1.44231,-27.815932 l -3.91484,-103.021973 q -0.20604,-80.15109 4.53297,-127.95329 1.64835,-17.30769 3.09066,-24.51923 1.8544,-8.4478 5.35714,-10.30219 3.50275,-2.06044 12.77473,-1.8544 h 25.13736 q 4.32692,0 7.82967,0.20604 6.38736,0.41209 6.79945,7.82967 0,2.47253 -0.20605,3.70879 l -3.09066,18.33792 q -3.70879,20.39835 -5.97527,54.18955 -2.67857,35.64561 -2.47253,60.16483 -0.20604,27.19781 3.70879,75.412088 2.26649,31.730767 4.53297,48.214283 3.50275,27.609888 3.50275,31.9368112 Q 355.2692,0 341.05217,0 Z" /><path
               style="fill:#404040;stroke:#808080;fill-opacity:1"
               id="path5629"
               d="m 439.63018,-238.1868 9.27198,0.61813 q 10.09615,0.82418 10.3022,10.71429 0,3.50274 -2.47253,16.8956 -3.2967,16.8956 -3.09066,38.53022 0,46.56593 7.82967,127.335156 l 3.50275,29.876372 q 0.41209,2.884615 0.41209,5.1510985 0,8.0357138 -9.06594,8.65384561 Q 452.61095,0.41208789 448.90216,0 h -30.70055 q -11.53846,0.82417578 -12.98077,-15.247252 l -2.06044,-25.755493 q -2.06044,-27.1978 -2.67857,-58.104392 -0.61813,-23.282963 -0.61813,-57.280213 -0.20604,-19.78022 0.20604,-26.78572 0.20605,-17.51373 1.8544,-38.9423 0.82418,-16.07143 18.13187,-16.07143 z m -36.26373,-53.57142 q -0.41209,-11.53847 9.89011,-19.57418 9.27197,-7.21154 21.22252,-7.00549 12.1566,-0.20605 21.84066,7.41758 9.68407,7.62362 9.89011,20.39835 -0.41209,11.7445 -10.09615,19.57417 -9.68407,7.62363 -20.81044,7.21154 -11.74451,0.41209 -22.25275,-7.21154 -10.30219,-7.82967 -9.68406,-20.81043 z" /><path
               style="fill:#404040;stroke:#808080;fill-opacity:1"
               id="path5631"
               d="m 536.55987,-243.95603 6.38737,0.61813 q 8.24175,1.44231 10.09615,10.3022 1.03022,5.97527 1.85439,7.82967 2.06044,6.18132 6.59341,5.76923 2.88462,0 6.59341,-2.47253 l 12.15659,-9.68406 q 14.83516,-12.1566 29.87637,-12.36264 15.24725,-0.20604 26.78571,10.3022 11.74451,10.50824 11.95055,26.16758 0.20605,15.04121 -7.21154,26.37362 -9.68406,15.04121 -21.63461,15.65934 -4.73901,0.20605 -7.62363,-5.35714 l -3.2967,-5.76923 q -6.18132,-10.92033 -16.68956,-11.12637 -17.51373,-0.41209 -26.16758,23.90109 -5.97527,16.48352 -5.76923,36.88187 -0.20604,11.53846 1.03022,24.93132 2.26648,35.439556 5.35714,56.662082 l 3.29671,24.107142 1.23626,8.447801 0.82418,7.4175825 Q 572.20548,0.61813183 557.7824,0 h -20.60439 q -9.06594,0 -11.95055,-0.82417578 -4.73901,-1.64835152 -6.18132,-9.47802122 l -2.47253,-15.453296 q -2.06044,-12.980768 -3.50275,-32.760987 -2.47252,-28.640108 -3.70879,-51.30494 l -0.20604,-4.53297 -1.64835,-60.37087 q -1.03022,-30.28846 -0.82418,-36.46978 0,-11.33242 1.03022,-20.6044 1.44231,-11.7445 13.39286,-12.15659 z" /><path
               style="fill:#404040;stroke:#808080;fill-opacity:1"
               id="path5633"
               d="m 775.26918,0 q -47.39011,0.41208789 -69.02472,-10.302197 -34.82143,-16.895604 -34.40934,-57.074173 0,-22.458789 12.56868,-41.00274 12.56868,-18.75 32.14286,-29.0522 19.78022,-10.3022 44.50549,-16.68956 6.18132,-1.44231 10.71428,-3.91483 5.56319,-2.47253 5.76923,-10.09616 -0.20604,-12.56868 -12.15659,-21.01648 -9.89011,-7.21154 -23.69505,-7.62363 -21.84066,0.41209 -33.37912,24.31319 -1.8544,5.56319 -8.24176,5.35714 -11.12637,0.20605 -18.75,-8.85989 -7.00549,-8.03571 -6.5934,-19.98626 0,-19.16209 17.71978,-32.3489 9.06593,-7.21154 19.98626,-10.71428 14.83516,-4.94506 31.73077,-4.94506 21.63461,0 40.7967,8.03571 18.13186,7.62363 30.08241,22.87088 12.15659,15.24725 15.04121,31.73077 4.12088,22.45879 4.32692,59.5467 l 0.61813,29.258239 0.61814,24.725274 q 0.41208,17.513735 2.67857,29.464283 2.67857,16.277472 2.88461,21.428571 0.20605,11.7445044 -8.85989,15.0412075 Q 826.36808,0.20604394 813.7994,0 Z m 6.59341,-98.282961 q 0.61813,-18.337909 -12.56868,-17.719779 -9.27198,0 -19.36813,4.73901 -24.10715,10.71429 -24.31319,33.379119 -0.41209,14.62912 11.53846,25.137361 9.47802,8.241758 26.57967,8.447802 15.65934,0.206044 17.51374,-15.041208 l 0.61813,-9.065933 z" /></g></g></g><g
         style="fill:#404040;stroke:#808080;fill-opacity:1"
         id="g1209"><g
           style="fill:#404040;stroke:#808080;fill-opacity:1"
           id="g1211"
           clip-path="url(#clipPath1215)"><g
             id="text1219"
             style="font-variant:normal;font-weight:600;font-size:126.59343719px;font-family:HoboMedium;-inkscape-font-specification:HoboMedium;writing-mode:lr-tb;fill:#404040;fill-opacity:1;fill-rule:nonzero;stroke:#808080"
             transform="matrix(0,-0.99920856,-0.98006658,0.1986693,2572,3250)"
             aria-label="notes"><path
               style="fill:#404040;stroke:#808080;fill-opacity:1"
               id="path5636"
               d="m 14.217036,0 -1.35989,-0.0618132 -2.163462,-0.0618132 q -1.9780226,0 -2.1634622,-1.9780225 -1.2980772,-8.7156611 -1.54533,-17.8640151 -0.1854396,-4.203298 -0.1854396,-11.620882 -0.061813,-7.603024 0.1236264,-15.82418 0.061813,-9.951925 0.927198,-18.049455 0.061813,-1.54533 0.4945056,-2.967033 0.9890113,-4.63599 5.5631878,-4.759617 h 10.322805 q 0.865385,-0.06181 1.298077,0.309066 0.494506,0.309066 0.618132,1.236264 0,0.741759 -0.123626,1.050825 -0.06181,0.247252 -0.18544,1.050824 -0.123626,2.781594 1.54533,2.596154 0.989012,0.06181 2.287089,-0.679945 7.046705,-3.770605 11.991761,-3.832418 13.351652,0 16.009619,20.398356 0.927198,6.984892 0.927198,16.998631 -0.06181,13.166212 -1.174451,23.241764 l -0.803571,5.5631879 Q 55.755508,0.18543961 50.377759,0 h -5.068682 l -2.163462,-0.0618132 q -4.388737,0.1854396 -4.203298,-2.0398357 l 0.06181,-0.618132 q 0.432693,-2.472528 0.989012,-6.5521994 2.410714,-17.7403887 2.472528,-31.2774797 -0.06181,-6.119507 -0.803572,-10.075552 -1.298077,-6.5522 -7.293958,-6.675826 -11.373629,0.18544 -11.435442,22.500005 0.06181,12.300828 2.472528,25.4670395 l 0.927198,5.1304958 0.123626,1.4217036 q -0.185439,2.53434129 -3.646979,2.7197809 L 21.201928,0 Z" /><path
               style="fill:#404040;stroke:#808080;fill-opacity:1"
               id="path5638"
               d="m 72.177546,-37.64424 q -0.123626,-14.526102 7.108518,-24.107149 8.592035,-11.497255 21.881876,-11.435442 6.05769,0 11.31181,2.472528 8.77748,4.203298 13.72253,13.969784 4.01786,8.097529 4.01786,19.347532 0.0618,8.962914 -2.53434,17.122257 -3.09066,9.828299 -9.64286,15.5151135 -7.4794,6.4903861 -16.81319,6.4903861 Q 95.295684,1.7925829 89.794309,-0.92719803 84.292934,-3.7087921 80.398702,-8.7774746 76.566283,-13.90797 74.711887,-20.27473 72.115733,-28.619512 72.177546,-37.64424 Z m 16.133246,0.309066 q 0,8.09753 2.410715,13.537091 3.646978,8.035717 10.446433,7.91209 6.86126,0.06181 10.44643,-7.91209 2.41071,-5.439561 2.47253,-13.660717 0,-5.254122 -1.23627,-10.137365 -0.86538,-3.152474 -2.59615,-5.995881 -3.33791,-5.377748 -9.08654,-5.439562 -5.625004,0.06181 -9.02473,5.439562 -1.854396,2.781594 -2.596154,5.995881 -1.298077,5.006869 -1.236264,10.260991 z" /><path
               style="fill:#404040;stroke:#808080;fill-opacity:1"
               id="path5640"
               d="m 146.12197,-48.028858 0.0618,-6.737639 q -0.37088,-4.821429 -3.02884,-4.821429 -0.98902,0 -2.10165,0.618132 -0.80357,0.494505 -1.23627,0.432692 -0.37088,0 -0.55632,-0.18544 l -0.37087,-0.432692 q -0.49451,-0.803572 -0.4327,-2.472528 -0.12362,-9.828299 4.14149,-9.890112 l 1.91621,0.06181 q 1.11263,0 1.85439,-0.989011 0.86539,-1.050825 1.11264,-2.781595 0.74176,-4.203297 1.29808,-5.501374 0.9272,-1.91621 4.63599,-3.337913 l 6.18132,-2.410715 q 1.35989,-0.494506 2.22527,-0.556319 1.97803,-0.247253 2.16347,3.646979 -0.0618,2.101649 -0.61814,5.254122 -0.30906,1.298077 -0.24725,2.657968 -0.12363,4.203297 3.2761,4.079671 l 4.45055,-0.309066 1.17445,-0.06181 q 3.39973,0.123626 3.46154,3.832418 -0.18544,9.210167 -2.96703,9.148354 -0.61814,0 -1.42171,-0.247253 -1.73077,-0.432692 -3.46154,-0.494505 -4.6978,-0.06181 -5.19231,6.614012 l -0.12362,7.788464 q -0.0618,3.770605 0.0618,5.130495 0.18544,4.326925 0.86539,9.333794 0.67994,5.625001 1.79258,9.581046 1.11264,4.326924 3.15247,9.148354 l 1.48352,3.0906601 q 0.49451,1.1126377 0.61813,1.6071433 -0.12362,1.4835168 -2.90522,3.0288469 l -9.27198,5.13049573 q -1.48352,0.86538487 -3.09066,0.80357157 -3.58516,-0.061813 -5.43956,-6.2431333 -1.66896,-4.9450562 -2.53434,-10.2609913 -0.80357,-5.377749 -0.86539,-9.766486 -0.12362,-2.287089 -0.0618,-9.951926 z" /><path
               style="fill:#404040;stroke:#808080;fill-opacity:1"
               id="path5642"
               d="m 205.19808,-29.73215 q -2.71978,0.927198 -4.88324,2.348902 -3.02885,2.225275 -2.96704,4.326924 0,3.646979 5.37775,5.686814 3.83242,1.483517 8.22116,1.483517 13.47528,0.06181 18.91484,-10.755497 l 0.55632,-0.865385 q 0.37088,-0.494505 0.80357,-0.432692 2.28709,0.370879 2.28709,7.479397 -0.0618,10.260992 -6.92308,16.2568723 -6.79945,5.9340673 -16.87501,5.9340673 -14.27885,0 -22.06731,-11.1881895 -6.42857,-9.1483541 -6.42857,-24.5398411 0,-5.995881 0.9272,-11.250003 1.60714,-9.27198 7.35577,-16.875004 8.22115,-11.00275 21.75824,-11.064563 9.51924,0.123627 15.32968,5.130496 6.5522,5.625001 6.67582,14.587915 -0.12362,12.91896 -15.08242,19.285719 -2.47252,1.112638 -5.50137,2.039836 z m 3.95605,-15.82418 q 7.72665,-2.719781 7.9739,-7.355771 -0.0618,-2.90522 -2.96703,-4.574177 -2.53435,-1.483516 -5.43957,-1.54533 -5.31593,0.123627 -8.59203,3.585166 -2.47253,2.410715 -4.38874,7.788463 -0.74176,1.978023 -0.67994,3.46154 -0.18544,2.410715 1.97802,2.410715 0.80357,0 3.95604,-1.050825 z" /><path
               style="fill:#404040;stroke:#808080;fill-opacity:1"
               id="path5644"
               d="m 243.41892,-19.409345 q -0.0618,-3.09066 0.86538,-6.057694 1.48352,-4.697803 3.46154,-4.883243 0.86539,-0.06181 1.29808,1.174451 5.43956,13.166212 18.97665,13.289838 3.21429,0.06181 5.93407,-1.298077 3.64698,-1.916209 3.64698,-4.759617 0,-1.607143 -1.17445,-2.596154 l -2.41072,-1.54533 -4.07967,-2.719781 q -0.86538,-0.556319 -7.23214,-3.337913 -3.77061,-1.54533 -7.04671,-3.770605 -5.25412,-3.337913 -7.60302,-7.355771 -2.22528,-3.585166 -2.16346,-9.024728 -0.0618,-6.552199 3.95604,-11.620882 4.01786,-5.130495 10.32281,-7.479397 4.82143,-1.792583 10.19918,-1.792583 6.61401,0.06181 12.6717,2.781594 3.15247,1.421704 5.43956,3.523353 3.39973,3.09066 3.39973,5.377748 -0.18544,2.287089 -3.52335,6.923079 -3.2761,4.63599 -5.74863,4.45055 -1.60714,0.06181 -3.15247,-2.410714 -1.42171,-2.039836 -3.09066,-3.646979 -2.96704,-2.781594 -7.17034,-2.843408 -2.96703,0.06181 -4.88324,1.607144 -2.28709,1.792582 -2.28709,4.388737 0.0618,2.90522 2.41072,4.759616 1.29808,1.112638 3.46154,2.039836 l 11.31181,5.130496 q 4.94506,2.287088 8.71566,6.057694 5.74863,5.872254 5.81045,14.649728 -0.12363,10.5700579 -7.66484,16.4423121 -7.04671,5.5631881 -17.55495,5.6868145 -8.83929,0 -15.88599,-3.9560449 -9.21017,-4.9450561 -9.21017,-17.1840697 z" /></g></g></g><g
         style="fill:#404040;stroke:#404040;fill-opacity:1;stroke-opacity:1"
         id="g1221"><g
           style="fill:#404040;stroke:#404040;fill-opacity:1;stroke-opacity:1"
           id="g1223"
           clip-path="url(#clipPath1227)"><path
             d="m 2602,3278 v 553"
             style="fill:#404040;stroke:#404040;stroke-width:19;stroke-linecap:round;stroke-linejoin:round;stroke-miterlimit:10;stroke-dasharray:none;stroke-opacity:1;fill-opacity:1"
             id="path1229" /></g></g></g></g></svg>