<svg width="285" height="80" viewBox="0 0 285 80" fill="none" xmlns="http://www.w3.org/2000/svg">
<g clip-path="url(#clip0)">
<path d="M81.8197 61.2949L85.1534 55.5112L105.919 16.3907L108.128 12.0127C108.77 10.7274 109.667 8.87988 110.819 6.46999C115.531 6.52354 118.972 6.55031 121.141 6.55031C124.917 6.55031 128.411 6.52354 131.624 6.46999L137.488 23.2187L149.417 55.4309L151.747 61.2949C147.114 61.2414 144.303 61.2146 143.312 61.2146C141.063 61.2146 137.756 61.2414 133.391 61.2949C132.213 56.8768 130.513 51.6821 128.29 45.711H108.047C105.718 50.4237 103.308 55.6183 100.818 61.2949C95.8372 61.2414 92.7847 61.2146 91.6601 61.2146C89.6251 61.2146 86.3449 61.2414 81.8197 61.2949ZM112.907 34.023H125.398C122.292 24.5709 120.592 19.3629 120.298 18.3989C118.53 22.3351 117.031 25.5616 115.799 28.0786L112.907 34.023Z" fill="#404040"/>
<path d="M155.405 61.2547L156.128 52.6193L157.694 22.6162L158.136 6.46999C161.858 6.52354 164.656 6.55031 166.53 6.55031C168.967 6.55031 171.658 6.52354 174.603 6.46999L173.68 18.8006L172.194 49.1652L171.872 61.2949C169.007 61.2414 166.423 61.2146 164.12 61.2146L155.405 61.2547Z" fill="#404040"/>
<path d="M183.274 15.1857C183.435 11.9993 183.515 9.48234 183.515 7.63476C183.515 7.09923 183.502 6.37625 183.475 5.46584C186.715 5.5194 189.433 5.54619 191.628 5.54619C194.654 5.54619 197.305 5.5194 199.581 5.46584C199.501 6.29592 199.447 6.99214 199.42 7.55445L199.179 12.5349C199.126 13.2846 199.099 14.1682 199.099 15.1857C196.448 15.1322 193.904 15.1054 191.468 15.1054C188.951 15.1054 186.22 15.1322 183.274 15.1857ZM180.744 61.2949C181.119 58.0282 181.4 55.3371 181.587 53.2218C181.775 51.1064 181.949 48.402 182.109 45.1085C182.297 41.815 182.457 38.1734 182.591 34.1837C182.725 30.194 182.832 25.5617 182.913 20.2867C186.394 20.3402 189.178 20.367 191.267 20.367C193.168 20.367 195.899 20.3402 199.461 20.2867C199.005 25.3474 198.671 29.7923 198.456 33.6214C198.269 37.4504 198.149 41.5071 198.095 45.7913C197.988 53.3958 197.934 58.5637 197.934 61.2949C194.748 61.2414 192.003 61.2146 189.701 61.2146C187.425 61.2146 184.439 61.2414 180.744 61.2949Z" fill="#404040"/>
<path d="M206.609 61.2949L207.854 43.4618L208.256 33.2197C208.283 31.3721 208.296 29.4844 208.296 27.5565C208.296 25.6018 208.269 23.1785 208.216 20.2867C211.456 20.3402 214.026 20.367 215.927 20.367C218.15 20.367 220.707 20.3402 223.599 20.2867L223.438 24.8253C224.482 23.6471 225.339 22.7769 226.009 22.2146C226.678 21.6255 227.441 21.1034 228.298 20.6482C229.155 20.1662 230.052 19.8181 230.989 19.6039C231.926 19.3629 232.904 19.2424 233.921 19.2424C234.885 19.2424 235.956 19.3763 237.134 19.644C237.161 22.5627 237.228 24.9726 237.335 26.8737L237.616 33.0591C236.144 32.6307 234.765 32.4164 233.479 32.4164C231.873 32.4164 230.48 32.6574 229.302 33.1394C228.151 33.5946 227.12 34.3042 226.209 35.2681C225.326 36.2053 224.616 37.3835 224.081 38.8026C223.545 40.2218 223.17 42.471 222.956 45.5503C222.742 48.6296 222.635 52.1507 222.635 56.1137C222.635 57.506 222.688 59.2331 222.795 61.2949C220.198 61.2414 217.587 61.2146 214.963 61.2146C212.366 61.2146 209.581 61.2414 206.609 61.2949Z" fill="#404040"/>
<path d="M245.795 31.9743C246.304 29.3234 246.626 27.5026 246.759 26.5119C246.893 25.4944 247.108 23.9146 247.402 21.7724C255.114 20.0855 261.741 19.2421 267.284 19.2421C270.443 19.2421 273.335 19.6035 275.959 20.3265C278.583 21.0227 280.632 22.1607 282.104 23.7405C283.577 25.3203 284.313 27.5829 284.313 30.5284C284.313 32.0278 284.113 35.4017 283.711 40.6499C283.309 45.8981 283.001 52.7796 282.787 61.2946C280.163 61.241 277.552 61.2143 274.955 61.2143C272.438 61.2143 269.76 61.241 266.922 61.2946C267.297 58.3492 267.712 52.2709 268.167 43.0598C267.15 43.5417 266.346 43.8898 265.757 44.1041C265.195 44.3183 264.191 44.6396 262.745 45.068C261.299 45.4964 260.161 45.8579 259.331 46.1525C258.528 46.447 257.818 46.8219 257.202 47.2771C256.613 47.7323 256.185 48.2009 255.917 48.6828C255.676 49.1648 255.556 49.7003 255.556 50.2894C255.556 51.1998 255.917 51.9764 256.64 52.619C257.363 53.2616 258.514 53.5829 260.094 53.5829C260.656 53.5829 261.259 53.5428 261.902 53.4624C262.544 53.3553 263.428 53.1143 264.552 52.7395C263.776 54.8013 262.852 57.8136 261.781 61.7766C259.478 62.1514 257.296 62.3389 255.234 62.3389C251.914 62.3389 249.143 61.8837 246.92 60.9733C244.724 60.0361 243.024 58.5366 241.819 56.4748C240.641 54.413 240.052 52.3512 240.052 50.2894C240.052 49.0309 240.266 47.7992 240.695 46.5943C241.15 45.3893 241.846 44.2112 242.783 43.0598C243.72 41.9084 244.818 40.931 246.077 40.1277C247.335 39.2977 249.049 38.5211 251.218 37.7982C253.413 37.0752 256.185 36.3924 259.532 35.7498C260.924 35.482 262.196 35.2009 263.347 34.9063C264.526 34.585 265.356 34.3172 265.838 34.103C266.346 33.862 266.748 33.5943 267.043 33.2997C267.364 32.9784 267.592 32.6571 267.725 32.3358C267.859 31.9877 267.926 31.6262 267.926 31.2513C267.926 30.2338 267.498 29.4573 266.641 28.9218C265.784 28.3595 264.526 28.0783 262.865 28.0783C258.26 28.0783 252.57 29.377 245.795 31.9743Z" fill="#404040"/>
<path d="M236.535 71.5873C236.573 71.3964 236.592 71.2357 236.59 71.1052C236.588 70.9748 236.563 70.8723 236.517 70.7978C236.476 70.7186 236.413 70.6627 236.33 70.6301C236.246 70.5975 236.143 70.5812 236.019 70.5812C235.848 70.5812 235.639 70.6045 235.392 70.6511C235.145 70.6976 234.862 70.7605 234.542 70.8397L234.537 70.3366C234.898 70.2202 235.242 70.1154 235.57 70.0222C235.903 69.9244 236.207 69.8405 236.483 69.7707C236.758 69.7008 236.999 69.6472 237.206 69.61C237.413 69.5727 237.574 69.5541 237.688 69.5541C237.963 69.5541 238.16 69.6356 238.279 69.7986C238.404 69.957 238.426 70.2318 238.347 70.6231C238.338 70.6697 238.311 70.7792 238.266 70.9515C238.223 71.1192 238.165 71.3335 238.093 71.5943C238.026 71.8552 237.946 72.1556 237.854 72.4957C237.762 72.8311 237.661 73.1898 237.55 73.5717C237.444 73.9537 237.331 74.3497 237.209 74.7596C237.089 75.1648 236.967 75.5701 236.842 75.9754L236.883 75.9823C237.488 74.7805 238.08 73.7674 238.661 72.9429C239.242 72.1137 239.798 71.443 240.329 70.9306C240.862 70.4135 241.362 70.0408 241.831 69.8126C242.3 69.5843 242.727 69.4702 243.112 69.4702C243.377 69.4702 243.624 69.5191 243.851 69.6169C244.078 69.7148 244.265 69.8708 244.412 70.0851C244.563 70.2994 244.661 70.5765 244.706 70.9166C244.752 71.252 244.727 71.6595 244.629 72.1393C244.601 72.2791 244.553 72.4677 244.486 72.7053C244.425 72.9382 244.353 73.1991 244.27 73.4879C244.188 73.7767 244.097 74.0841 243.998 74.4102C243.904 74.7316 243.814 75.0484 243.727 75.3605C243.64 75.6726 243.558 75.9707 243.482 76.2548C243.411 76.5343 243.354 76.7789 243.311 76.9885C243.238 77.3518 243.192 77.6476 243.174 77.8759C243.161 78.1041 243.177 78.2858 243.221 78.4209C243.265 78.5513 243.342 78.6422 243.45 78.6934C243.56 78.74 243.7 78.7633 243.871 78.7633C244.118 78.7633 244.381 78.7307 244.66 78.6654C244.94 78.5956 245.228 78.5001 245.523 78.379L245.585 78.7423C245.386 78.8774 245.142 79.0148 244.853 79.1546C244.563 79.2943 244.262 79.4224 243.949 79.5389C243.64 79.6553 243.336 79.7485 243.037 79.8184C242.737 79.8929 242.478 79.9302 242.259 79.9302C242.003 79.9302 241.815 79.8626 241.695 79.7275C241.575 79.5924 241.501 79.4084 241.472 79.1755C241.448 78.9426 241.456 78.6701 241.495 78.358C241.539 78.0459 241.598 77.7105 241.671 77.3518C241.759 76.914 241.865 76.4645 241.987 76.0033C242.114 75.5375 242.24 75.095 242.363 74.6757C242.486 74.2565 242.596 73.8768 242.693 73.5368C242.796 73.1921 242.869 72.9173 242.91 72.7123C243.021 72.1673 242.997 71.7667 242.84 71.5105C242.684 71.2496 242.433 71.1192 242.086 71.1192C241.811 71.1192 241.498 71.2333 241.148 71.4616C240.798 71.6898 240.43 72.0043 240.045 72.4049C239.665 72.8008 239.28 73.2713 238.89 73.8163C238.505 74.3566 238.136 74.9436 237.785 75.5771C237.434 76.2059 237.115 76.8651 236.828 77.5545C236.541 78.2439 236.309 78.9333 236.131 79.6227L234.605 79.8044L234.493 79.7974C234.62 79.3549 234.754 78.8727 234.893 78.351C235.032 77.8293 235.17 77.3006 235.307 76.7649C235.445 76.2246 235.577 75.6912 235.703 75.1648C235.834 74.6338 235.953 74.14 236.06 73.6835C236.172 73.2224 236.268 72.8101 236.346 72.4468C236.429 72.0835 236.492 71.797 236.535 71.5873Z" fill="#404040"/>
<path d="M247.079 75.6049C247.174 75.1344 247.321 74.657 247.519 74.1725C247.717 73.6881 247.959 73.2199 248.245 72.7681C248.533 72.3115 248.859 71.8853 249.224 71.4894C249.595 71.0888 249.998 70.7394 250.434 70.4413C250.869 70.1432 251.335 69.9079 251.831 69.7356C252.326 69.5632 252.845 69.4771 253.386 69.4771C253.994 69.4771 254.505 69.6028 254.92 69.8544C255.339 70.1059 255.665 70.439 255.9 70.8536C256.135 71.2635 256.28 71.7316 256.334 72.258C256.394 72.7844 256.368 73.3224 256.257 73.872C256.161 74.3425 256.015 74.82 255.817 75.3044C255.619 75.7889 255.374 76.2594 255.082 76.7159C254.795 77.1677 254.467 77.5939 254.096 77.9945C253.731 78.3905 253.33 78.7375 252.895 79.0356C252.459 79.3338 251.993 79.569 251.498 79.7414C251.002 79.9137 250.484 79.9999 249.942 79.9999C249.334 79.9999 248.821 79.8741 248.402 79.6226C247.987 79.371 247.662 79.0403 247.427 78.6304C247.198 78.2158 247.054 77.7453 246.994 77.2189C246.939 76.6926 246.968 76.1546 247.079 75.6049ZM248.916 74.9411C248.852 75.2578 248.81 75.5793 248.792 75.9053C248.778 76.2314 248.793 76.5458 248.836 76.8486C248.879 77.1514 248.95 77.4356 249.048 77.7011C249.151 77.9619 249.288 78.1902 249.457 78.3858C249.631 78.5815 249.838 78.7352 250.076 78.847C250.32 78.9588 250.6 79.0147 250.918 79.0147C251.265 79.0147 251.584 78.9425 251.874 78.7981C252.17 78.649 252.438 78.4534 252.677 78.2111C252.921 77.9689 253.136 77.6918 253.323 77.3797C253.514 77.0676 253.682 76.7461 253.825 76.4154C253.969 76.08 254.088 75.7493 254.183 75.4232C254.282 75.0971 254.359 74.7967 254.415 74.5219C254.48 74.2005 254.519 73.879 254.532 73.5576C254.551 73.2315 254.538 72.9194 254.494 72.6213C254.451 72.3185 254.378 72.0367 254.274 71.7759C254.176 71.5103 254.039 71.2821 253.864 71.0911C253.695 70.8955 253.488 70.7418 253.245 70.63C253.007 70.5182 252.728 70.4623 252.41 70.4623C252.063 70.4623 251.742 70.5345 251.447 70.6789C251.157 70.8233 250.889 71.0166 250.646 71.2588C250.407 71.501 250.191 71.7782 250 72.0903C249.813 72.4024 249.648 72.7238 249.505 73.0545C249.362 73.3853 249.24 73.716 249.14 74.0467C249.046 74.3728 248.971 74.6709 248.916 74.9411Z" fill="#404040"/>
<path d="M263.628 64.5163C263.249 65.4013 262.895 66.3167 262.565 67.2623C262.241 68.2032 261.939 69.1325 261.658 70.0502C261.879 70.0595 262.094 70.0665 262.302 70.0712C262.515 70.0758 262.711 70.0805 262.891 70.0851C263.075 70.0898 263.241 70.0921 263.388 70.0921C263.54 70.0921 263.666 70.0921 263.765 70.0921C264.197 70.0921 264.556 70.0665 264.842 70.0153C264.85 70.0945 264.854 70.1667 264.855 70.2319C264.856 70.2971 264.851 70.3576 264.84 70.4135C264.798 70.6185 264.684 70.7513 264.496 70.8118C264.312 70.8724 264.057 70.9026 263.729 70.9026C263.416 70.9026 263.068 70.884 262.686 70.8467C262.309 70.8095 261.894 70.7746 261.44 70.7419C261.286 71.2404 261.142 71.7271 261.008 72.2023C260.88 72.6727 260.761 73.1176 260.652 73.5368C260.548 73.9561 260.455 74.345 260.373 74.7037C260.291 75.0624 260.223 75.3745 260.169 75.64C260.068 76.1384 260.004 76.5833 259.977 76.9746C259.95 77.3659 259.975 77.6989 260.052 77.9737C260.13 78.2439 260.271 78.4512 260.474 78.5956C260.678 78.74 260.958 78.8122 261.314 78.8122C261.57 78.8122 261.864 78.768 262.196 78.6795C262.532 78.591 262.921 78.4489 263.365 78.2532C263.467 78.379 263.51 78.5327 263.492 78.7144C263.159 78.9054 262.827 79.0801 262.495 79.2384C262.165 79.3922 261.844 79.5249 261.531 79.6367C261.219 79.7485 260.921 79.8347 260.638 79.8952C260.355 79.9558 260.093 79.9861 259.851 79.9861C259.532 79.9861 259.252 79.9278 259.01 79.8114C258.771 79.6996 258.584 79.4993 258.448 79.2105C258.317 78.917 258.247 78.5234 258.238 78.0296C258.234 77.5359 258.308 76.9117 258.461 76.1571C258.547 75.7332 258.642 75.2976 258.747 74.8504C258.853 74.3986 258.965 73.9421 259.082 73.4809C259.199 73.0198 259.324 72.5586 259.455 72.0975C259.587 71.6363 259.721 71.1821 259.859 70.7349C259.483 70.7396 259.131 70.7559 258.802 70.7839C258.479 70.8071 258.198 70.8467 257.959 70.9026C257.95 70.8747 257.95 70.8421 257.958 70.8048C257.977 70.707 258.043 70.6162 258.155 70.5323C258.273 70.4438 258.424 70.3646 258.609 70.2947C258.799 70.2249 259.02 70.1667 259.272 70.1201C259.523 70.0735 259.796 70.0409 260.089 70.0223C260.396 69.0487 260.699 68.1287 260.998 67.2623C261.297 66.3959 261.577 65.6226 261.839 64.9425C261.887 64.8214 261.95 64.7213 262.028 64.6421C262.11 64.5629 262.199 64.5 262.294 64.4534C262.389 64.4068 262.488 64.3742 262.592 64.3556C262.695 64.337 262.794 64.3276 262.889 64.3276C263.046 64.3276 263.183 64.3439 263.3 64.3765C263.421 64.4092 263.531 64.4557 263.628 64.5163Z" fill="#404040"/>
<path d="M271.751 77.4565C271.777 77.4705 271.808 77.4915 271.845 77.5194C271.888 77.5427 271.925 77.5707 271.957 77.6033C271.989 77.6312 272.016 77.6638 272.037 77.7011C272.058 77.7337 272.066 77.7663 272.059 77.7989C272.056 77.8175 272.045 77.8362 272.027 77.8548C271.687 78.2182 271.336 78.5349 270.972 78.8051C270.614 79.0706 270.251 79.2942 269.882 79.4759C269.518 79.6529 269.157 79.7833 268.798 79.8672C268.438 79.9557 268.092 79.9999 267.759 79.9999C267.189 79.9999 266.69 79.8858 266.262 79.6575C265.833 79.4293 265.488 79.1172 265.226 78.7212C264.964 78.3253 264.79 77.8618 264.703 77.3308C264.622 76.7951 264.643 76.2221 264.766 75.6119C264.867 75.1135 265.023 74.615 265.233 74.1166C265.448 73.6182 265.706 73.1431 266.007 72.6912C266.312 72.2394 266.656 71.8202 267.038 71.4335C267.421 71.0422 267.834 70.7045 268.276 70.4204C268.724 70.1315 269.195 69.9056 269.689 69.7426C270.187 69.5796 270.703 69.498 271.235 69.498C271.586 69.498 271.911 69.5446 272.211 69.6378C272.51 69.731 272.76 69.866 272.962 70.043C273.169 70.2154 273.318 70.4297 273.409 70.6859C273.499 70.9421 273.511 71.2332 273.445 71.5593C273.349 72.0344 273.106 72.449 272.716 72.803C272.331 73.157 271.835 73.4575 271.23 73.7044C270.624 73.9513 269.928 74.1516 269.142 74.3053C268.361 74.4543 267.526 74.5661 266.637 74.6407L266.613 74.7595C266.492 75.3557 266.458 75.9007 266.51 76.3945C266.566 76.8882 266.694 77.3121 266.893 77.6662C267.093 78.0155 267.356 78.288 267.682 78.4837C268.008 78.6793 268.382 78.7771 268.805 78.7771C269.232 78.7771 269.69 78.6747 270.178 78.4697C270.672 78.2601 271.196 77.9224 271.751 77.4565ZM271.549 71.8458C271.593 71.6315 271.595 71.4312 271.557 71.2449C271.524 71.0585 271.454 70.8978 271.349 70.7627C271.249 70.623 271.117 70.5135 270.952 70.4343C270.788 70.3551 270.601 70.3156 270.392 70.3156C270.083 70.3156 269.792 70.3691 269.519 70.4763C269.245 70.5834 268.99 70.7301 268.753 70.9165C268.517 71.0981 268.297 71.3124 268.095 71.5593C267.894 71.8015 267.711 72.06 267.546 72.3349C267.386 72.6097 267.244 72.8915 267.119 73.1803C266.994 73.4691 266.889 73.751 266.805 74.0258C267.489 73.9792 268.108 73.9 268.662 73.7882C269.223 73.6718 269.703 73.525 270.105 73.348C270.512 73.1664 270.838 72.9521 271.083 72.7052C271.329 72.4536 271.484 72.1672 271.549 71.8458Z" fill="#404040"/>
<path d="M274.81 77.1002C274.771 77.4542 274.804 77.7593 274.909 78.0155C275.019 78.2717 275.173 78.4813 275.373 78.6443C275.573 78.8074 275.805 78.9285 276.069 79.0077C276.338 79.0869 276.612 79.1265 276.892 79.1265C277.154 79.1265 277.412 79.0915 277.669 79.0217C277.925 78.9518 278.159 78.8516 278.371 78.7212C278.582 78.5908 278.762 78.4301 278.91 78.2391C279.063 78.0481 279.163 77.8338 279.212 77.5962C279.262 77.3494 279.246 77.1328 279.165 76.9464C279.084 76.7601 278.96 76.5901 278.791 76.4364C278.623 76.2827 278.419 76.1406 278.18 76.0101C277.945 75.8797 277.699 75.747 277.441 75.6119C277.213 75.4954 276.982 75.379 276.75 75.2625C276.522 75.1414 276.304 75.011 276.095 74.8712C275.886 74.7315 275.694 74.5801 275.518 74.417C275.346 74.254 275.202 74.0747 275.085 73.879C274.974 73.6787 274.898 73.4575 274.857 73.2152C274.821 72.9684 274.834 72.6959 274.894 72.3977C274.959 72.0763 275.076 71.7805 275.245 71.5103C275.414 71.2402 275.617 70.9979 275.855 70.7837C276.099 70.5647 276.366 70.3738 276.655 70.2107C276.949 70.0477 277.255 69.9126 277.571 69.8055C277.888 69.6937 278.206 69.6121 278.525 69.5609C278.85 69.505 279.16 69.4771 279.454 69.4771C279.834 69.4771 280.184 69.519 280.504 69.6028C280.83 69.682 281.103 69.8008 281.322 69.9592C281.548 70.1129 281.711 70.3016 281.813 70.5251C281.92 70.7487 281.945 71.0003 281.888 71.2798C281.866 71.3869 281.824 71.5034 281.76 71.6291C281.697 71.7549 281.609 71.8737 281.496 71.9855C281.384 72.0926 281.247 72.1835 281.084 72.258C280.922 72.3325 280.734 72.3721 280.519 72.3768C280.319 72.3768 280.117 72.3465 279.91 72.2859L279.903 72.2161C280 72.067 280.075 71.9296 280.129 71.8038C280.183 71.678 280.221 71.5616 280.243 71.4545C280.281 71.2402 280.261 71.0608 280.181 70.9164C280.107 70.7674 279.998 70.6463 279.856 70.5531C279.713 70.4599 279.546 70.3924 279.355 70.3505C279.169 70.3085 278.981 70.2876 278.791 70.2876C278.454 70.2876 278.143 70.3318 277.859 70.4203C277.576 70.5088 277.326 70.6276 277.11 70.7767C276.901 70.9211 276.727 71.0864 276.59 71.2728C276.457 71.4591 276.37 71.6524 276.33 71.8527C276.278 72.1089 276.3 72.3395 276.396 72.5445C276.493 72.7448 276.638 72.9311 276.831 73.1034C277.025 73.2711 277.254 73.4295 277.518 73.5786C277.787 73.7276 278.068 73.8767 278.361 74.0258C278.688 74.1935 279.011 74.3681 279.33 74.5498C279.651 74.7268 279.928 74.9294 280.162 75.1577C280.396 75.3859 280.568 75.6491 280.678 75.9473C280.795 76.2407 280.812 76.5878 280.731 76.9884C280.634 77.4682 280.438 77.8944 280.144 78.267C279.855 78.6397 279.504 78.9541 279.091 79.2103C278.678 79.4665 278.223 79.6598 277.727 79.7903C277.234 79.9253 276.736 79.9929 276.232 79.9929C275.981 79.9929 275.723 79.9742 275.46 79.937C275.202 79.8997 274.954 79.8438 274.718 79.7693C274.481 79.6948 274.26 79.6039 274.053 79.4968C273.853 79.385 273.681 79.2592 273.539 79.1195C273.402 78.9751 273.301 78.8167 273.236 78.6443C273.177 78.4673 273.169 78.274 273.211 78.0644C273.248 77.8827 273.317 77.729 273.418 77.6032C273.525 77.4775 273.65 77.375 273.794 77.2958C273.939 77.2166 274.093 77.1584 274.257 77.1211C274.427 77.0792 274.596 77.0559 274.763 77.0513L274.81 77.1002Z" fill="#404040"/>
<path d="M225.54 74.3864C225.54 74.6802 225.424 74.962 225.216 75.1697C225.008 75.3774 224.726 75.4941 224.433 75.4941H74.7209C74.4272 75.4941 74.1454 75.3774 73.9376 75.1697C73.7299 74.962 73.6132 74.6802 73.6132 74.3864C73.6132 74.0926 73.7299 73.8109 73.9376 73.6031C74.1454 73.3954 74.4272 73.2787 74.7209 73.2787H224.433C224.726 73.2787 225.008 73.3954 225.216 73.6031C225.424 73.8109 225.54 74.0926 225.54 74.3864Z" fill="#404040"/>
<path d="M19.2673 74.3796C19.2684 74.6653 19.1966 74.9465 19.0586 75.1967C18.9206 75.4468 18.7211 75.6576 18.4789 75.8091C18.1015 76.0451 17.6458 76.1215 17.2121 76.0216C16.7783 75.9216 16.402 75.6535 16.166 75.2761L2.94033 54.1285C2.70432 53.7511 2.62789 53.2954 2.72785 52.8616C2.82781 52.4279 3.09597 52.0516 3.47335 51.8156C3.85075 51.5796 4.30642 51.5031 4.74017 51.6031C5.17392 51.7031 5.5502 51.9712 5.78624 52.3486L19.0119 73.4962C19.1776 73.7611 19.2661 74.0671 19.2673 74.3796Z" fill="#404040"/>
<path d="M76.6007 53.2298C76.6023 53.5462 76.5145 53.8565 76.3474 54.1251L63.1889 75.2727C62.9537 75.6507 62.5781 75.9197 62.1445 76.0207C61.711 76.1217 61.2551 76.0463 60.8772 75.8111C60.4992 75.576 60.2302 75.2003 60.1292 74.7668C60.0282 74.3333 60.1036 73.8774 60.3388 73.4994L73.4973 52.3518C73.7324 51.9739 74.1081 51.7048 74.5416 51.6038C74.9751 51.5029 75.431 51.5783 75.809 51.8134C76.0499 51.9633 76.2489 52.1719 76.3874 52.4196C76.5258 52.6673 76.5992 52.946 76.6007 53.2298Z" fill="#404040"/>
<path d="M2.92766 50.5566C2.50692 50.5547 2.10224 50.3948 1.7938 50.1086C1.48536 49.8225 1.29565 49.4309 1.26226 49.0115C0.112332 34.5737 7.16832 20.704 19.5152 13.1325C31.862 5.56104 47.4235 5.56104 59.7704 13.1325C72.1172 20.704 79.1732 34.5737 78.0233 49.0115C77.988 49.4552 77.7778 49.8667 77.439 50.1555C77.1003 50.4442 76.6607 50.5866 76.2169 50.5513C75.7732 50.5159 75.3618 50.3057 75.073 49.967C74.7842 49.6283 74.6419 49.1887 74.6772 48.745C75.7274 35.5594 69.2916 22.9088 58.0156 15.994C46.7395 9.07922 32.546 9.07922 21.27 15.994C9.994 22.9088 3.55821 35.5594 4.6084 48.745C4.64371 49.1887 4.50133 49.6283 4.21257 49.967C3.9238 50.3057 3.51232 50.5159 3.06862 50.5513C3.02173 50.555 2.9747 50.5568 2.92766 50.5566Z" fill="#404040"/>
<path d="M4.40172 54.9043C4.11603 54.9048 3.83494 54.8324 3.58505 54.6939C3.33517 54.5555 3.12477 54.3555 2.97378 54.113C2.02364 52.5868 1.45322 50.8549 1.31048 49.0627C1.27513 48.619 1.4175 48.1794 1.70627 47.8407C1.99503 47.5019 2.40654 47.2917 2.85026 47.2564C3.29399 47.221 3.73358 47.3634 4.07234 47.6522C4.4111 47.9409 4.62127 48.3524 4.65662 48.7962C4.75676 50.0534 5.15679 51.2683 5.82336 52.339C6.05861 52.7169 6.13412 53.1727 6.03328 53.6063C5.93243 54.0398 5.66349 54.4156 5.28562 54.6508C5.02033 54.816 4.7142 54.9037 4.40172 54.9043Z" fill="#404040"/>
<path d="M74.8669 54.9042C74.5602 54.9005 74.2603 54.8128 73.9999 54.6507C73.622 54.4155 73.3531 54.0397 73.2523 53.6062C73.1514 53.1726 73.2269 52.7168 73.4622 52.3389C74.1287 51.2682 74.5288 50.0533 74.6289 48.796C74.6643 48.3523 74.8744 47.9408 75.2132 47.6521C75.552 47.3633 75.9915 47.2209 76.4353 47.2563C76.879 47.2916 77.2905 47.5018 77.5793 47.8405C77.868 48.1793 78.0104 48.6189 77.9751 49.0626C77.8323 50.8547 77.2619 52.5866 76.3118 54.1128C76.1593 54.3578 75.9462 54.5594 75.6931 54.698C75.44 54.8366 75.1554 54.9076 74.8669 54.9042Z" fill="#404040"/>
<path d="M4.40172 54.9043C4.11603 54.9048 3.83494 54.8324 3.58505 54.6939C3.33517 54.5555 3.12477 54.3555 2.97378 54.113C2.02364 52.5868 1.45322 50.8549 1.31048 49.0627C1.27513 48.619 1.4175 48.1794 1.70627 47.8407C1.99503 47.5019 2.40654 47.2917 2.85026 47.2564C3.29399 47.221 3.73358 47.3634 4.07234 47.6522C4.4111 47.9409 4.62127 48.3524 4.65662 48.7962C4.75676 50.0534 5.15679 51.2683 5.82336 52.339C6.05861 52.7169 6.13412 53.1727 6.03328 53.6063C5.93243 54.0398 5.66349 54.4156 5.28562 54.6508C5.02033 54.816 4.7142 54.9037 4.40172 54.9043Z" fill="#404040"/>
<path d="M43.4359 49.2777C43.4359 49.7228 43.2591 50.1497 42.9443 50.4645C42.6296 50.7792 42.2027 50.9561 41.7575 50.9561H37.5951C37.15 50.9561 36.7231 50.7792 36.4083 50.4645C36.0936 50.1497 35.9168 49.7228 35.9168 49.2777C35.9168 48.8325 36.0936 48.4056 36.4083 48.0909C36.7231 47.7761 37.15 47.5993 37.5951 47.5993H41.7575C42.2027 47.5993 42.6296 47.7761 42.9443 48.0909C43.2591 48.4056 43.4359 48.8325 43.4359 49.2777Z" fill="#404040"/>
<path d="M44.9801 52.0862C44.9823 52.4314 44.8781 52.7689 44.6816 53.0528L41.0563 58.2893C40.9019 58.5124 40.6956 58.6946 40.4553 58.8205C40.215 58.9464 39.9477 59.0122 39.6764 59.0122C39.4051 59.0122 39.1378 58.9464 38.8975 58.8205C38.6571 58.6946 38.4509 58.5124 38.2964 58.2893L34.6711 53.0528C34.5457 52.8715 34.4571 52.6674 34.4105 52.452C34.364 52.2365 34.3603 52.014 34.3998 51.7972C34.4392 51.5803 34.5209 51.3734 34.6403 51.1881C34.7598 51.0028 34.9145 50.8429 35.0957 50.7175C35.2769 50.592 35.4811 50.5035 35.6965 50.4569C35.9119 50.4103 36.1344 50.4067 36.3513 50.4461C36.5681 50.4855 36.7751 50.5673 36.9604 50.6867C37.1456 50.8061 37.3056 50.9608 37.431 51.142L39.6764 54.3854L41.9217 51.142C42.0472 50.9608 42.2071 50.8061 42.3924 50.6867C42.5776 50.5673 42.7846 50.4855 43.0015 50.4461C43.2183 50.4067 43.4408 50.4103 43.6562 50.4569C43.8717 50.5035 44.0758 50.592 44.257 50.7175C44.4786 50.8708 44.66 51.0753 44.7858 51.3135C44.9117 51.5518 44.9783 51.8168 44.9801 52.0862Z" fill="#404040"/>
<path d="M43.1887 53.7373C42.8531 53.7363 42.5255 53.6346 42.2483 53.4455C41.8805 53.1948 41.6275 52.8082 41.5447 52.3708C41.462 51.9335 41.5564 51.4811 41.8072 51.1134C41.83 51.0799 41.8319 51.0454 41.8129 51.0095C41.794 50.9737 41.7644 50.9559 41.7239 50.9559C41.2788 50.9559 40.8519 50.7791 40.5371 50.4643C40.2224 50.1496 40.0455 49.7227 40.0455 49.2775C40.0455 48.8324 40.2224 48.4055 40.5371 48.0907C40.8519 47.776 41.2788 47.5991 41.7239 47.5991C43.0023 47.5991 44.1835 48.3109 44.7808 49.4412C45.3781 50.5714 45.3008 51.9482 44.5806 53.0044C44.4261 53.231 44.2184 53.4163 43.9758 53.544C43.7332 53.6718 43.4629 53.7381 43.1887 53.7373Z" fill="#404040"/>
<path d="M36.0798 53.7373C35.8085 53.7354 35.5417 53.6677 35.3022 53.5401C35.0627 53.4125 34.8578 53.2287 34.7049 53.0045C33.9847 51.9483 33.9073 50.5715 34.5047 49.4413C35.102 48.311 36.2832 47.5992 37.5615 47.5992C38.0067 47.5992 38.4336 47.7761 38.7483 48.0908C39.0631 48.4056 39.2399 48.8325 39.2399 49.2776C39.2399 49.7228 39.0631 50.1497 38.7483 50.4644C38.4336 50.7792 38.0067 50.956 37.5615 50.956C37.521 50.956 37.4914 50.9738 37.4725 51.0096C37.4536 51.0455 37.4554 51.08 37.4783 51.1135C37.729 51.4812 37.8234 51.9336 37.7407 52.3709C37.658 52.8083 37.4049 53.1949 37.0372 53.4456C36.7551 53.6379 36.4212 53.7397 36.0798 53.7373Z" fill="#404040"/>
<path d="M56.8965 35.1123C52.5536 35.1123 48.7178 32.228 47.5122 28.0558C47.4511 27.844 47.4322 27.6223 47.4567 27.4033C47.4812 27.1842 47.5486 26.9721 47.6551 26.7792C47.7616 26.5862 47.905 26.416 48.0772 26.2785C48.2494 26.1409 48.447 26.0386 48.6588 25.9775C49.0864 25.8539 49.5456 25.9053 49.9354 26.1202C50.3251 26.3352 50.6135 26.6962 50.7371 27.1239C51.5319 29.8743 54.0335 31.7555 56.8965 31.7555C59.7595 31.7555 62.2611 29.8743 63.0559 27.1239C63.1795 26.6962 63.4679 26.3352 63.8576 26.1202C64.2474 25.9053 64.7066 25.8539 65.1342 25.9775C65.3459 26.0386 65.5436 26.1409 65.7158 26.2785C65.888 26.416 66.0314 26.5862 66.1379 26.7792C66.2444 26.9721 66.3118 27.1842 66.3363 27.4033C66.3608 27.6223 66.3419 27.844 66.2807 28.0558C65.0752 32.228 61.2394 35.1123 56.8965 35.1123Z" fill="#404040"/>
<path d="M56.5273 33.2301C56.5276 33.3846 56.5064 33.5385 56.4645 33.6873L55.1218 38.4539C55.0621 38.6661 54.9611 38.8644 54.8247 39.0375C54.6883 39.2107 54.5191 39.3552 54.3268 39.463C54.1345 39.5708 53.9229 39.6396 53.704 39.6656C53.4851 39.6915 53.2633 39.6741 53.0511 39.6143C52.839 39.5546 52.6407 39.4536 52.4675 39.3172C52.2944 39.1808 52.1498 39.0116 52.042 38.8193C51.9343 38.6271 51.8655 38.4154 51.8395 38.1965C51.8135 37.9776 51.8309 37.7558 51.8907 37.5436L53.2334 32.777C53.2932 32.5649 53.3941 32.3665 53.5305 32.1934C53.6669 32.0202 53.8361 31.8757 54.0284 31.7679C54.2207 31.6601 54.4323 31.5913 54.6512 31.5654C54.8701 31.5394 55.0919 31.5568 55.3041 31.6166C55.6558 31.7157 55.9656 31.9269 56.1864 32.2181C56.4072 32.5093 56.5269 32.8646 56.5273 33.2301Z" fill="#404040"/>
<path d="M62.0996 37.9896C62.1016 38.357 61.983 38.7148 61.7621 39.0083C61.5411 39.3018 61.2299 39.5147 60.8763 39.6143C60.6642 39.6741 60.4423 39.6915 60.2234 39.6656C60.0045 39.6396 59.7929 39.5708 59.6006 39.463C59.4083 39.3552 59.2392 39.2107 59.1028 39.0375C58.9663 38.8644 58.8654 38.6661 58.8056 38.4539L57.4629 33.6873C57.4031 33.4751 57.3857 33.2533 57.4117 33.0344C57.4377 32.8155 57.5065 32.6039 57.6143 32.4116C57.722 32.2193 57.8666 32.0501 58.0397 31.9137C58.2129 31.7773 58.4112 31.6763 58.6234 31.6166C58.8355 31.5568 59.0574 31.5394 59.2763 31.5654C59.4951 31.5913 59.7068 31.6601 59.8991 31.7679C60.0914 31.8757 60.2605 32.0202 60.3969 32.1934C60.5333 32.3665 60.6343 32.5649 60.6941 32.777L62.0368 37.5436C62.0776 37.6888 62.0988 37.8388 62.0996 37.9896Z" fill="#404040"/>
<path d="M52.8349 31.0925C52.8327 31.5347 52.656 31.9581 52.3434 32.2708L48.8523 35.7618C48.6965 35.9177 48.5114 36.0413 48.3078 36.1257C48.1042 36.21 47.8859 36.2534 47.6655 36.2534C47.4451 36.2534 47.2269 36.21 47.0232 36.1257C46.8196 36.0413 46.6346 35.9177 46.4787 35.7618C46.3229 35.606 46.1992 35.421 46.1149 35.2173C46.0305 35.0137 45.9871 34.7954 45.9871 34.575C45.9871 34.3546 46.0305 34.1364 46.1149 33.9327C46.1992 33.7291 46.3229 33.5441 46.4787 33.3882L49.9698 29.8972C50.1256 29.7414 50.3107 29.6177 50.5143 29.5334C50.7179 29.449 50.9361 29.4056 51.1566 29.4056C51.377 29.4056 51.5952 29.449 51.7988 29.5334C52.0025 29.6177 52.1875 29.7414 52.3434 29.8972C52.5002 30.0541 52.6245 30.2405 52.7088 30.4456C52.7932 30.6508 52.8361 30.8707 52.8349 31.0925Z" fill="#404040"/>
<path d="M68.6117 33.7727C68.6109 34.1662 68.4719 34.547 68.2188 34.8484C67.9327 35.1894 67.5228 35.4027 67.0793 35.4414C66.6359 35.4801 66.1952 35.3411 65.8543 35.0549L62.0947 31.8996C61.7538 31.6134 61.5405 31.2035 61.5017 30.7601C61.463 30.3166 61.602 29.876 61.8882 29.535C62.1744 29.1941 62.5843 28.9808 63.0277 28.9421C63.4711 28.9033 63.9118 29.0423 64.2528 29.3285L68.0123 32.4839C68.2004 32.6418 68.3516 32.839 68.4552 33.0617C68.5587 33.2844 68.6122 33.5271 68.6117 33.7727Z" fill="#404040"/>
<path d="M22.3219 35.0449C17.979 35.0449 14.1433 32.1606 12.9377 27.9884C12.8765 27.7766 12.8576 27.5549 12.8821 27.3359C12.9066 27.1168 12.974 26.9048 13.0805 26.7118C13.187 26.5188 13.3304 26.3486 13.5026 26.2111C13.6748 26.0735 13.8725 25.9712 14.0842 25.9101C14.5118 25.7865 14.971 25.8379 15.3608 26.0529C15.7505 26.2678 16.0389 26.6289 16.1625 27.0565C16.9573 29.8069 19.4589 31.6882 22.3219 31.6882C25.1849 31.6882 27.6866 29.8069 28.4813 27.0565C28.6049 26.6289 28.8933 26.2678 29.283 26.0529C29.6728 25.8379 30.132 25.7865 30.5596 25.9101C30.7714 25.9712 30.969 26.0735 31.1412 26.2111C31.3134 26.3486 31.4569 26.5188 31.5633 26.7118C31.6698 26.9048 31.7372 27.1168 31.7617 27.3359C31.7862 27.5549 31.7673 27.7766 31.7062 27.9884C30.5006 32.1606 26.6648 35.0449 22.3219 35.0449Z" fill="#404040"/>
<path d="M27.4577 37.9442C27.4549 38.3116 27.3317 38.6679 27.1069 38.9585C26.8821 39.2491 26.5681 39.4578 26.2132 39.5528C26.0003 39.6098 25.7782 39.6243 25.5597 39.5954C25.3412 39.5666 25.1305 39.495 24.9397 39.3847C24.7488 39.2745 24.5816 39.1277 24.4474 38.9528C24.3133 38.7779 24.215 38.5783 24.158 38.3654L22.8824 33.5987C22.8254 33.3858 22.811 33.1638 22.8398 32.9453C22.8686 32.7267 22.9402 32.516 23.0505 32.3252C23.1607 32.1343 23.3075 31.9671 23.4824 31.833C23.6573 31.6988 23.857 31.6005 24.0699 31.5435C24.2828 31.4865 24.5048 31.472 24.7234 31.5009C24.9419 31.5297 25.1526 31.6013 25.3434 31.7116C25.5343 31.8218 25.7015 31.9686 25.8356 32.1435C25.9698 32.3184 26.0681 32.5181 26.1251 32.731L27.4007 37.4976C27.4397 37.6432 27.4588 37.7934 27.4577 37.9442Z" fill="#404040"/>
<path d="M21.9526 33.1632C21.9529 33.3177 21.9317 33.4716 21.8898 33.6204L20.5471 38.387C20.4874 38.5992 20.3864 38.7975 20.25 38.9706C20.1136 39.1438 19.9444 39.2884 19.7521 39.3961C19.5598 39.5039 19.3482 39.5727 19.1293 39.5987C18.9104 39.6246 18.6886 39.6072 18.4764 39.5474C18.2642 39.4877 18.0659 39.3867 17.8928 39.2503C17.7196 39.1139 17.5751 38.9447 17.4673 38.7524C17.3596 38.5602 17.2907 38.3485 17.2648 38.1296C17.2388 37.9108 17.2562 37.6889 17.316 37.4767L18.6587 32.7101C18.7184 32.498 18.8194 32.2997 18.9558 32.1265C19.0922 31.9534 19.2614 31.8088 19.4537 31.701C19.646 31.5933 19.8576 31.5244 20.0765 31.4985C20.2954 31.4725 20.5172 31.4899 20.7294 31.5497C21.0811 31.6488 21.3909 31.86 21.6117 32.1512C21.8325 32.4424 21.9522 32.7977 21.9526 33.1632Z" fill="#404040"/>
<path d="M33.3657 34.5167C33.3635 34.9588 33.1868 35.3823 32.8741 35.6949C32.7183 35.8508 32.5332 35.9744 32.3296 36.0588C32.126 36.1431 31.9077 36.1865 31.6873 36.1865C31.4669 36.1865 31.2487 36.1431 31.045 36.0588C30.8414 35.9744 30.6564 35.8508 30.5005 35.6949L27.0095 32.2039C26.8536 32.0481 26.73 31.863 26.6456 31.6594C26.5613 31.4558 26.5179 31.2375 26.5179 31.0171C26.5179 30.7967 26.5613 30.5784 26.6456 30.3748C26.73 30.1712 26.8536 29.9862 27.0095 29.8303C27.1653 29.6745 27.3504 29.5508 27.554 29.4665C27.7576 29.3821 27.9759 29.3387 28.1963 29.3387C28.4167 29.3387 28.6349 29.3821 28.8386 29.4665C29.0422 29.5508 29.2272 29.6745 29.3831 29.8303L32.8741 33.3213C33.031 33.4782 33.1552 33.6646 33.2396 33.8698C33.324 34.075 33.3668 34.2948 33.3657 34.5167Z" fill="#404040"/>
<path d="M17.8574 30.5603C17.8554 30.803 17.8008 31.0425 17.6973 31.262C17.5938 31.4816 17.4439 31.6762 17.258 31.8322L13.4984 34.9876C13.1575 35.2737 12.7168 35.4127 12.2734 35.374C11.8299 35.3353 11.4201 35.122 11.1339 34.781C10.8477 34.4401 10.7087 33.9994 10.7474 33.556C10.7861 33.1126 10.9995 32.7027 11.3404 32.4165L15.1 29.2611C15.4409 28.975 15.8816 28.836 16.325 28.8747C16.7685 28.9134 17.1783 29.1267 17.4645 29.4677C17.7213 29.7735 17.8606 30.1609 17.8574 30.5603Z" fill="#404040"/>
<path d="M55.0503 57.3392C55.0501 57.3995 55.0467 57.4597 55.0401 57.5195L54.9058 58.728C54.8939 58.8349 54.8717 58.9405 54.8396 59.0432L54.5039 60.1174C54.4771 60.2032 54.4434 60.2868 54.4032 60.3673L53.8661 61.4415C53.8047 61.5642 53.7285 61.679 53.6391 61.7832L52.8335 62.7231C52.762 62.8065 52.6825 62.8827 52.5962 62.9506L51.6563 63.689C51.5887 63.7421 51.5171 63.79 51.4422 63.8321L50.368 64.4363C50.3086 64.4697 50.2473 64.4995 50.1843 64.5255L49.043 64.9954C48.9218 65.0453 48.7951 65.0808 48.6656 65.1012L47.39 65.3027C47.3035 65.3163 47.216 65.3232 47.1283 65.3232H45.9199C45.8322 65.3232 45.7447 65.3163 45.6582 65.3027L44.3826 65.1012C44.2641 65.0826 44.1479 65.0512 44.036 65.0078L42.8276 64.5378C42.7538 64.5091 42.6821 64.4752 42.6131 64.4363L41.5389 63.8321C41.4463 63.78 41.3588 63.7192 41.2776 63.6505L40.4048 62.912C40.3365 62.8542 40.2729 62.791 40.2147 62.7231L39.6763 62.095L39.1379 62.7231C39.0664 62.8065 38.9869 62.8827 38.9006 62.9506L37.9607 63.689C37.8931 63.7421 37.8215 63.79 37.7466 63.8321L36.6724 64.4363C36.613 64.4697 36.5517 64.4995 36.4887 64.5255L35.3474 64.9954C35.2262 65.0453 35.0995 65.0808 34.97 65.1012L33.6945 65.3027C33.6079 65.3163 33.5204 65.3232 33.4327 65.3232H32.2243C32.1367 65.3232 32.0491 65.3163 31.9626 65.3027L30.687 65.1012C30.5575 65.0808 30.4309 65.0453 30.3096 64.9954L29.1683 64.5255C29.1053 64.4995 29.044 64.4697 28.9846 64.4363L27.9105 63.8321C27.8355 63.79 27.7639 63.7421 27.6963 63.689L26.7564 62.9506C26.6701 62.8827 26.5906 62.8065 26.5191 62.7231L25.7135 61.7832C25.6241 61.679 25.5479 61.5642 25.4865 61.4415L24.9494 60.3673C24.9092 60.2868 24.8755 60.2032 24.8487 60.1174L24.5131 59.0432C24.4809 58.9405 24.4588 58.8349 24.4468 58.728L24.3126 57.5195C24.2882 57.3005 24.3073 57.0788 24.3686 56.867C24.4299 56.6553 24.5324 56.4578 24.67 56.2857C24.8077 56.1135 24.978 55.9702 25.171 55.8639C25.3641 55.7576 25.5762 55.6903 25.7953 55.666C26.0144 55.6416 26.2361 55.6607 26.4478 55.722C26.6595 55.7833 26.8571 55.8858 27.0292 56.0235C27.2013 56.1611 27.3446 56.3314 27.4509 56.5245C27.5573 56.7175 27.6245 56.9297 27.6489 57.1487L27.7652 58.1964L28.0123 58.9871L28.3965 59.7555L28.9602 60.4131L29.6687 60.9698L30.5411 61.4605L31.4053 61.8163L32.3559 61.9665H33.3011L34.2517 61.8163L35.116 61.4605L35.9883 60.9698L36.6968 60.4131L37.2605 59.7555L37.6447 58.9871L37.8918 58.1964L38.0082 57.1487C38.054 56.7384 38.2495 56.3594 38.5573 56.0841C38.865 55.8089 39.2634 55.6567 39.6763 55.6567C40.0892 55.6567 40.4876 55.8089 40.7954 56.0841C41.1031 56.3594 41.2986 56.7384 41.3445 57.1487L41.4608 58.1964L41.7079 58.9871L42.0921 59.7555L42.6758 60.4364L43.3239 60.9848L44.1551 61.4523L45.0844 61.8137L46.0515 61.9665H46.9967L47.9473 61.8163L48.8116 61.4605L49.6839 60.9698L50.3924 60.4131L50.9561 59.7555L51.3403 58.9871L51.5874 58.1964L51.7037 57.1487C51.7281 56.9297 51.7954 56.7175 51.9017 56.5245C52.008 56.3314 52.1513 56.1611 52.3234 56.0235C52.4956 55.8858 52.6931 55.7833 52.9048 55.722C53.1165 55.6607 53.3382 55.6416 53.5573 55.666C53.9687 55.7117 54.3487 55.9078 54.6243 56.2167C54.8998 56.5255 55.0516 56.9253 55.0503 57.3392Z" fill="#404040"/>
<path d="M63.4423 74.3861C63.4423 74.8312 63.2654 75.2581 62.9507 75.5729C62.6359 75.8876 62.209 76.0645 61.7639 76.0645H17.5889C17.1437 76.0645 16.7168 75.8876 16.4021 75.5729C16.0873 75.2581 15.9105 74.8312 15.9105 74.3861C15.9105 73.9409 16.0873 73.514 16.4021 73.1993C16.7168 72.8845 17.1437 72.7077 17.5889 72.7077H61.7639C62.209 72.7077 62.6359 72.8845 62.9507 73.1993C63.2654 73.514 63.4423 73.9409 63.4423 74.3861Z" fill="#404040"/>
<path d="M29.5438 12.2583C29.3153 12.2567 29.0896 12.2085 28.8804 12.1167C28.6712 12.0248 28.483 11.8912 28.3272 11.7241C22.1432 5.08625 12.9799 2.10773 4.07487 3.84091C3.63794 3.92593 3.18514 3.8339 2.81606 3.58507C2.44699 3.33625 2.19187 2.951 2.10683 2.51408C2.02182 2.07715 2.11384 1.62435 2.36267 1.25527C2.6115 0.886195 2.99675 0.631079 3.43367 0.546041C13.4712 -1.40756 23.8128 1.95382 30.7833 9.43583C30.9335 9.5971 31.0505 9.78639 31.1276 9.99288C31.2047 10.1994 31.2404 10.419 31.2326 10.6393C31.2248 10.8596 31.1737 11.0762 31.0821 11.2767C30.9906 11.4772 30.8605 11.6577 30.6992 11.808C30.3857 12.1001 29.9723 12.2612 29.5438 12.2583Z" fill="#404040"/>
<path d="M6.92855 30.8457C6.66196 30.8459 6.39918 30.7825 6.16194 30.6609C5.92471 30.5393 5.71985 30.3629 5.56434 30.1464C-0.400495 21.8405 -1.6622 11.0397 2.2275 1.58246C2.31134 1.37862 2.43451 1.19328 2.58998 1.03704C2.74544 0.880795 2.93016 0.756701 3.13359 0.671846C3.33701 0.586992 3.55516 0.543037 3.77557 0.542492C3.99598 0.541945 4.21434 0.584818 4.41819 0.668663C4.62203 0.752501 4.80737 0.875669 4.96361 1.03114C5.11986 1.1866 5.24395 1.37132 5.3288 1.57475C5.41366 1.77817 5.45761 1.99632 5.45816 2.21673C5.4587 2.43714 5.41583 2.6555 5.33199 2.85934C1.88115 11.2495 2.99909 20.8195 8.29092 28.1884C8.55057 28.5499 8.65596 28.9998 8.58391 29.4391C8.51187 29.8783 8.26828 30.271 7.90673 30.5306C7.62164 30.7353 7.27953 30.8455 6.92855 30.8457Z" fill="#404040"/>
<path d="M49.7249 12.2588C49.3022 12.2574 48.8956 12.0965 48.5864 11.8084C48.4251 11.6581 48.295 11.4776 48.2035 11.2771C48.112 11.0766 48.0609 10.86 48.0531 10.6397C48.0452 10.4194 48.0809 10.1998 48.158 9.99327C48.2351 9.78678 48.3521 9.59749 48.5023 9.43621C55.4728 1.95421 65.8144 -1.40717 75.852 0.54643C76.2889 0.631467 76.6741 0.886583 76.923 1.25566C77.1718 1.62473 77.2638 2.07754 77.1788 2.51446C77.0938 2.95139 76.8386 3.33663 76.4696 3.58546C76.1005 3.83429 75.6477 3.92632 75.2108 3.8413C66.3058 2.10812 57.1424 5.08664 50.9584 11.7245C50.8007 11.8937 50.6098 12.0285 50.3975 12.1205C50.1852 12.2124 49.9563 12.2595 49.7249 12.2588Z" fill="#404040"/>
<path d="M72.3402 30.8456C71.995 30.8419 71.6593 30.7319 71.3789 30.5305C71.0173 30.2709 70.7738 29.8782 70.7017 29.439C70.6297 28.9997 70.735 28.5498 70.9947 28.1883C76.2865 20.8195 77.4045 11.2494 73.9536 2.85925C73.8698 2.65541 73.8269 2.43705 73.8275 2.21664C73.828 1.99623 73.872 1.77808 73.9568 1.57465C74.0417 1.37123 74.1658 1.18651 74.322 1.03104C74.4783 0.875578 74.6636 0.752411 74.8674 0.668571C75.0713 0.584726 75.2896 0.541855 75.5101 0.5424C75.7305 0.542946 75.9486 0.586901 76.152 0.671757C76.3555 0.756611 76.5402 0.880703 76.6957 1.03695C76.8511 1.19319 76.9743 1.37853 77.0581 1.58237C80.9478 11.0396 79.6861 21.8404 73.7213 30.1463C73.5641 30.3652 73.3566 30.543 73.1162 30.6647C72.8758 30.7864 72.6096 30.8485 72.3402 30.8456Z" fill="#404040"/>
<path d="M65.6577 43.5123C65.6554 43.9545 65.4788 44.3779 65.1661 44.6906L59.9967 49.86C59.8408 50.0158 59.6558 50.1395 59.4522 50.2238C59.2485 50.3081 59.0303 50.3516 58.8099 50.3516C58.5895 50.3516 58.3713 50.3081 58.1676 50.2238C57.964 50.1395 57.7789 50.0158 57.6231 49.86C57.4672 49.7041 57.3436 49.5191 57.2593 49.3155C57.1749 49.1118 57.1315 48.8936 57.1315 48.6732C57.1315 48.4528 57.1749 48.2345 57.2593 48.0309C57.3436 47.8273 57.4672 47.6422 57.6231 47.4864L62.7925 42.317C62.9484 42.1611 63.1334 42.0375 63.337 41.9532C63.5407 41.8688 63.7589 41.8254 63.9793 41.8254C64.1997 41.8254 64.418 41.8688 64.6216 41.9532C64.8252 42.0375 65.0103 42.1611 65.1661 42.317C65.323 42.4738 65.4472 42.6602 65.5316 42.8654C65.616 43.0706 65.6588 43.2905 65.6577 43.5123Z" fill="#404040"/>
<path d="M69.4845 45.1032C69.4861 45.327 69.4429 45.5488 69.3576 45.7556C69.2722 45.9624 69.1464 46.1501 68.9875 46.3076L61.5355 53.6925C61.3789 53.8476 61.1933 53.9704 60.9893 54.0538C60.7853 54.1373 60.5669 54.1797 60.3465 54.1787C60.126 54.1777 59.908 54.1333 59.7047 54.048C59.5015 53.9628 59.317 53.8383 59.1619 53.6817C59.0067 53.5252 58.8839 53.3396 58.8005 53.1356C58.7171 52.9316 58.6746 52.7131 58.6756 52.4927C58.6766 52.2723 58.7211 52.0542 58.8063 51.851C58.8916 51.6477 59.0161 51.4633 59.1726 51.3081L66.6246 43.9232C66.7812 43.7681 66.9668 43.6453 67.1708 43.5619C67.3748 43.4784 67.5933 43.436 67.8137 43.437C68.0341 43.438 68.2521 43.4824 68.4554 43.5677C68.6586 43.653 68.8431 43.7774 68.9982 43.934C69.3068 44.2453 69.4813 44.6649 69.4845 45.1032Z" fill="#404040"/>
<path d="M71.0285 48.866C71.0297 49.0897 70.9861 49.3114 70.9004 49.5181C70.8147 49.7247 70.6885 49.9122 70.5292 50.0693L65.2927 55.2388C64.9759 55.5515 64.5479 55.7255 64.1027 55.7226C63.6576 55.7197 63.2319 55.5402 62.9192 55.2234C62.6065 54.9066 62.4324 54.4786 62.4353 54.0335C62.4382 53.5884 62.6178 53.1627 62.9345 52.8499L68.1711 47.6805C68.4879 47.3678 68.9159 47.1938 69.361 47.1967C69.8061 47.1995 70.2318 47.3791 70.5446 47.6959C70.8525 48.0078 71.0262 48.4277 71.0285 48.866Z" fill="#404040"/>
<path d="M16.8503 43.5123C16.8481 43.9545 16.6714 44.3779 16.3587 44.6906L11.1893 49.86C11.0335 50.0158 10.8484 50.1395 10.6448 50.2238C10.4412 50.3081 10.2229 50.3516 10.0025 50.3516C9.78211 50.3516 9.56388 50.3081 9.36024 50.2238C9.15661 50.1395 8.97157 50.0158 8.81572 49.86C8.65987 49.7041 8.53623 49.5191 8.45189 49.3155C8.36754 49.1118 8.32414 48.8936 8.32414 48.6732C8.32414 48.4528 8.36754 48.2345 8.45189 48.0309C8.53623 47.8273 8.65987 47.6422 8.81572 47.4864L13.9851 42.317C14.141 42.1611 14.326 42.0375 14.5297 41.9532C14.7333 41.8688 14.9515 41.8254 15.1719 41.8254C15.3923 41.8254 15.6106 41.8688 15.8142 41.9532C16.0178 42.0375 16.2029 42.1611 16.3587 42.317C16.5156 42.4738 16.6398 42.6602 16.7242 42.8654C16.8086 43.0706 16.8514 43.2905 16.8503 43.5123Z" fill="#404040"/>
<path d="M20.677 45.1109C20.6776 45.3346 20.6335 45.5562 20.5472 45.7626C20.4609 45.9691 20.3343 46.1561 20.1747 46.3129L12.6555 53.6978C12.3379 54.0097 11.9095 54.1827 11.4643 54.1786C11.0192 54.1746 10.594 53.994 10.282 53.6764C9.97014 53.3588 9.79717 52.9304 9.80118 52.4852C9.80519 52.0401 9.98584 51.6149 10.3034 51.3029L17.8226 43.9181C18.1401 43.6062 18.5686 43.4332 19.0137 43.4372C19.4588 43.4412 19.8841 43.6219 20.196 43.9394C20.5032 44.2521 20.6758 44.6726 20.677 45.1109Z" fill="#404040"/>
<path d="M22.2212 48.8655C22.2223 49.0893 22.1788 49.311 22.093 49.5176C22.0073 49.7243 21.8811 49.9117 21.7218 50.0688L16.4853 55.2383C16.1685 55.551 15.7405 55.725 15.2954 55.7221C14.8503 55.7193 14.4245 55.5397 14.1118 55.2229C13.7991 54.9061 13.6251 54.4781 13.628 54.033C13.6308 53.5879 13.8104 53.1622 14.1272 52.8495L19.3637 47.68C19.6805 47.3673 20.1085 47.1933 20.5536 47.1962C20.9987 47.199 21.4245 47.3786 21.7372 47.6954C22.0451 48.0073 22.2188 48.4272 22.2212 48.8655Z" fill="#404040"/>
</g>
<defs>
<clipPath id="clip0">
<rect width="284.314" height="80" fill="white"/>
</clipPath>
</defs>
</svg>
